<?xml version="1.0" encoding="UTF-8"?>
<svg version="1.1" xmlns="http://www.w3.org/2000/svg" width="1024" height="1024">
<path d="M0 0 C337.92 0 675.84 0 1024 0 C1024 337.92 1024 675.84 1024 1024 C686.08 1024 348.16 1024 0 1024 C0 686.08 0 348.16 0 0 Z " fill="#000000" transform="translate(0,0)"/>
<path d="M0 0 C1.2428126 -0.00692307 1.2428126 -0.00692307 2.51073253 -0.01398599 C5.30544606 -0.02462943 8.09924997 -0.00658383 10.89391708 0.01117325 C12.91027408 0.00942998 14.92663021 0.00592959 16.94298148 0.00081658 C22.49802736 -0.00815528 28.05276653 0.00791068 33.6077733 0.02792883 C39.59276242 0.0451576 45.5777334 0.03936037 51.56274033 0.03631973 C61.93688472 0.03421947 72.31094646 0.0466601 82.68506241 0.06927109 C93.56699982 0.09292819 104.4488972 0.10833264 115.33086014 0.11268234 C116.34525354 0.11309478 116.34525354 0.11309478 117.38013974 0.11351555 C120.81444579 0.11486886 124.24875187 0.1160744 127.68305799 0.11722305 C152.01686039 0.12562774 176.35061047 0.15258564 200.68438339 0.1904335 C224.32630764 0.22716288 247.96821758 0.25550142 271.61016464 0.27246475 C272.70302441 0.27325391 272.70302441 0.27325391 273.81796216 0.27405901 C281.13450274 0.27933303 288.45104342 0.28443629 295.76758421 0.28941445 C310.67261097 0.29955967 325.5776368 0.31084468 340.4826622 0.32281876 C341.51065635 0.3236425 341.51065635 0.3236425 342.55941806 0.32448288 C388.3351448 0.36129399 434.11084105 0.42475889 479.88653183 0.49219131 C480.57512417 44.05862682 481.10278315 87.62448037 481.41849171 131.19529695 C481.45600717 136.35400368 481.49483739 141.51269974 481.53448105 146.67139053 C481.54235036 147.69827393 481.55021967 148.72515733 481.55832745 149.78315841 C481.6884197 166.35120929 481.92469018 182.91609662 482.20111571 199.4822786 C482.48294527 216.51603247 482.64855845 233.54814486 482.70918667 250.58413398 C482.74645248 260.139918 482.8358329 269.68908396 483.05843353 279.24250031 C484.57152236 346.04773447 484.57152236 346.04773447 469.14355278 362.29429817 C464.20305631 366.9691396 458.89547858 370.95434466 453.04804802 374.41824532 C449.89553466 376.48628549 448.14439689 378.52218207 445.88653183 381.49219131 C445.22653183 381.49219131 444.56653183 381.49219131 443.88653183 381.49219131 C443.88653183 382.15219131 443.88653183 382.81219131 443.88653183 383.49219131 C420.78653183 383.49219131 397.68653183 383.49219131 373.88653183 383.49219131 C374.08435034 406.3043772 374.08435034 406.3043772 374.33697128 429.11597061 C374.35955429 433.53674698 374.35955429 433.53674698 374.36375046 435.60896683 C374.37140831 437.05049233 374.38895292 438.49198659 374.41440964 439.93330765 C374.45112658 442.12236163 374.45605875 444.30946639 374.45415878 446.49878311 C374.47081337 448.34744225 374.47081337 448.34744225 374.48780441 450.23344803 C373.72080942 454.39036428 372.063614 455.80778051 368.88653183 458.49219131 C366.7789388 460.67800822 364.70619472 462.89546027 362.63653183 465.11719131 C362.06733017 465.72820694 361.49812851 466.33922256 360.91167831 466.96875381 C356.73007232 471.49514339 352.79304862 476.14592741 348.98418808 480.99219131 C348.29196152 481.81719131 347.59973495 482.64219131 346.88653183 483.49219131 C346.08315384 484.51970505 345.27977585 485.54721878 344.45205307 486.60586929 C340.89356918 490.105774 337.75204232 490.19739299 332.90542221 490.23871231 C331.86100967 490.21714066 330.81659714 490.195569 329.74053574 490.17334366 C328.62775253 490.17421982 327.51496933 490.17509598 326.36846542 490.17599869 C322.69928831 490.17182669 319.03195112 490.1251881 315.36309433 490.07812881 C312.81577172 490.06693542 310.26843619 490.05839592 307.72109604 490.0524025 C301.70729736 490.03185364 295.69428549 489.98459341 289.68080175 489.92430556 C282.83203484 489.85714046 275.9832358 489.82422655 269.13422132 489.79413295 C255.05129454 489.7314901 240.96894924 489.62601803 226.88653183 489.49219131 C226.04201875 475.64613447 225.40787963 461.80643184 225.02129364 447.93962097 C224.83542806 441.49444353 224.58512034 435.06717619 224.17071152 428.63232803 C222.44891787 401.0715237 222.72601599 379.0678149 240.58965683 356.88281631 C262.88653183 342.49219131 262.88653183 342.49219131 333.88653183 342.49219131 C333.88653183 277.81219131 333.88653183 213.13219131 333.88653183 146.49219131 C223.00653183 146.49219131 112.12653183 146.49219131 -2.11346817 146.49219131 C-2.11346817 211.17219131 -2.11346817 275.85219131 -2.11346817 342.49219131 C32.86653183 342.49219131 67.84653183 342.49219131 103.88653183 342.49219131 C104.12718469 369.99346492 104.12718469 369.99346492 104.17950058 381.70508194 C104.2153854 389.70054158 104.25786201 397.69553438 104.33916855 405.69067764 C104.40430188 412.13569847 104.44022606 418.58027783 104.45579529 425.02560234 C104.46689221 427.48607014 104.48856183 429.94651345 104.52091217 432.40679359 C104.56439272 435.8500996 104.57046907 439.29157542 104.56768417 442.73511124 C104.58925583 443.75506683 104.61082748 444.77502243 104.63305283 445.82588577 C104.57362713 452.60455127 104.57362713 452.60455127 102.58244324 455.17690849 C100.98165512 456.50777054 100.98165512 456.50777054 97.88653183 458.49219131 C96.42179779 460.15949495 95.00374946 461.86903137 93.63653183 463.61719131 C89.7609005 468.47151742 85.68742675 473.0616065 81.44121933 477.59375381 C78.89029262 480.2152566 78.89029262 480.2152566 77.84695721 482.70807171 C76.17416637 485.79223278 74.76180141 487.43917115 71.88653183 489.49219131 C65.12278715 491.29244394 57.73486723 490.62620109 50.80474472 490.51391983 C48.59117367 490.51116191 46.37759469 490.5123658 44.16402721 490.51720715 C38.24029483 490.51923761 32.31820138 490.46711075 26.3948555 490.40371323 C20.83502205 490.35242513 15.27558548 490.35004364 9.71551132 490.34363174 C-6.54019861 490.2964217 -22.79560414 490.17077089 -39.05096817 490.05469131 C-75.37159317 489.86906631 -111.69221817 489.68344131 -149.11346817 489.49219131 C-149.11346817 375.64219131 -149.11346817 261.79219131 -149.11346817 144.49219131 C-149.77346817 144.16219131 -150.43346817 143.83219131 -151.11346817 143.49219131 C-145.6616002 137.950127 -140.22953208 132.49305738 -134.29706192 127.46094131 C-130.75713359 124.26930647 -127.45287112 120.83650129 -124.14886856 117.40259171 C-122.8398712 116.06283963 -121.48033943 114.77284454 -120.11346817 113.49219131 C-119.45346817 113.49219131 -118.79346817 113.49219131 -118.11346817 113.49219131 C-118.11346817 112.83219131 -118.11346817 112.17219131 -118.11346817 111.49219131 C-117.12346817 110.83219131 -116.13346817 110.17219131 -115.11346817 109.49219131 C-114.61846817 108.00719131 -114.61846817 108.00719131 -114.11346817 106.49219131 C-90.35346817 106.49219131 -66.59346817 106.49219131 -42.11346817 106.49219131 C-42.70483316 84.17298269 -42.70483316 84.17298269 -43.46478653 61.85937881 C-44.02775959 36.86291876 -44.02775959 36.86291876 -36.90022659 28.53271866 C-34.36051085 26.06046056 -31.74600308 23.84539976 -28.86893082 21.77655411 C-26.54104476 20.07338472 -24.59378742 18.0818281 -22.61346817 15.99219131 C-22.02049942 15.40953506 -21.42753067 14.82687881 -20.81659317 14.22656631 C-18.3408109 11.70535684 -16.04386178 9.04148867 -13.75409317 6.35156631 C-12.9419838 5.43117569 -12.9419838 5.43117569 -12.11346817 4.49219131 C-11.58697056 3.80399315 -11.06047295 3.11579499 -10.51802087 2.40674233 C-7.15746208 -0.26899908 -4.1147754 -0.05597823 0 0 Z " fill="#FEC831" transform="translate(348.113468170166,266.50780868530273)"/>
<path d="M0 0 C1.87399285 -0.00043895 3.74798563 -0.00131973 5.6219781 -0.00258917 C10.6394126 -0.00477075 15.65682478 -0.00090288 20.67425644 0.0041889 C26.13449662 0.00858716 31.59473596 0.00704047 37.05497742 0.00628662 C46.47144547 0.00576721 55.8879065 0.00885232 65.30437279 0.01452446 C78.91829643 0.02271957 92.53221674 0.0252628 106.14614258 0.02651245 C128.24430632 0.02869052 150.34246633 0.03531651 172.44062805 0.04481506 C193.88203414 0.05402162 215.32343914 0.06109807 236.7648468 0.06532288 C237.42808638 0.0654544 238.09132596 0.06558593 238.7746637 0.06572144 C246.09751793 0.06717106 253.42037217 0.06856282 260.74322641 0.06993091 C315.76923461 0.08026468 370.79523877 0.09784871 425.82124329 0.12025452 C425.82124329 0.45025452 425.82124329 0.78025452 425.82124329 1.12025452 C301.74124329 1.12025452 177.66124329 1.12025452 49.82124329 1.12025452 C49.82124329 79.00025452 49.82124329 156.88025452 49.82124329 237.12025452 C84.80124329 237.12025452 119.78124329 237.12025452 155.82124329 237.12025452 C155.85218079 255.28056702 155.85218079 255.28056702 155.88374329 273.80775452 C155.89284729 277.56367981 155.90195129 281.3196051 155.91133118 285.18934631 C155.91584778 289.94606018 155.91584778 289.94606018 155.91668701 292.20578003 C155.91817563 293.71200867 155.92158713 295.2182365 155.92681885 296.72445679 C155.9777244 312.22053695 155.3560503 327.61085119 154.82124329 343.12025452 C85.19124329 343.12025452 15.56124329 343.12025452 -56.17875671 343.12025452 C-56.17875671 230.26025452 -56.17875671 117.40025452 -56.17875671 1.12025452 C-15.9463458 -0.02924294 -15.9463458 -0.02924294 0 0 Z " fill="#FEC830" transform="translate(258.1787567138672,409.87974548339844)"/>
<path d="M0 0 C1.2428126 -0.00692307 1.2428126 -0.00692307 2.51073253 -0.01398599 C5.30544606 -0.02462943 8.09924997 -0.00658383 10.89391708 0.01117325 C12.91027408 0.00942998 14.92663021 0.00592959 16.94298148 0.00081658 C22.49802736 -0.00815528 28.05276653 0.00791068 33.6077733 0.02792883 C39.59276242 0.0451576 45.5777334 0.03936037 51.56274033 0.03631973 C61.93688472 0.03421947 72.31094646 0.0466601 82.68506241 0.06927109 C93.56699982 0.09292819 104.4488972 0.10833264 115.33086014 0.11268234 C116.34525354 0.11309478 116.34525354 0.11309478 117.38013974 0.11351555 C120.81444579 0.11486886 124.24875187 0.1160744 127.68305799 0.11722305 C152.01686039 0.12562774 176.35061047 0.15258564 200.68438339 0.1904335 C224.32630764 0.22716288 247.96821758 0.25550142 271.61016464 0.27246475 C272.70302441 0.27325391 272.70302441 0.27325391 273.81796216 0.27405901 C281.13450274 0.27933303 288.45104342 0.28443629 295.76758421 0.28941445 C310.67261097 0.29955967 325.5776368 0.31084468 340.4826622 0.32281876 C341.51065635 0.3236425 341.51065635 0.3236425 342.55941806 0.32448288 C388.3351448 0.36129399 434.11084105 0.42475889 479.88653183 0.49219131 C480.57512417 44.05862682 481.10278315 87.62448037 481.41849171 131.19529695 C481.45600717 136.35400368 481.49483739 141.51269974 481.53448105 146.67139053 C481.54235036 147.69827393 481.55021967 148.72515733 481.55832745 149.78315841 C481.6884197 166.35120929 481.92469018 182.91609662 482.20111571 199.4822786 C482.48294527 216.51603247 482.64855845 233.54814486 482.70918667 250.58413398 C482.74645248 260.139918 482.8358329 269.68908396 483.05843353 279.24250031 C484.57152236 346.04773447 484.57152236 346.04773447 469.14355278 362.29429817 C464.20305631 366.9691396 458.89547858 370.95434466 453.04804802 374.41824532 C449.89553466 376.48628549 448.14439689 378.52218207 445.88653183 381.49219131 C445.22653183 381.49219131 444.56653183 381.49219131 443.88653183 381.49219131 C443.88653183 382.15219131 443.88653183 382.81219131 443.88653183 383.49219131 C420.78653183 383.49219131 397.68653183 383.49219131 373.88653183 383.49219131 C374.08435034 406.3043772 374.08435034 406.3043772 374.33697128 429.11597061 C374.35955429 433.53674698 374.35955429 433.53674698 374.36375046 435.60896683 C374.37140831 437.05049233 374.38895292 438.49198659 374.41440964 439.93330765 C374.45112658 442.12236163 374.45605875 444.30946639 374.45415878 446.49878311 C374.47081337 448.34744225 374.47081337 448.34744225 374.48780441 450.23344803 C373.72080942 454.39036428 372.063614 455.80778051 368.88653183 458.49219131 C366.7789388 460.67800822 364.70619472 462.89546027 362.63653183 465.11719131 C362.06733017 465.72820694 361.49812851 466.33922256 360.91167831 466.96875381 C356.73007232 471.49514339 352.79304862 476.14592741 348.98418808 480.99219131 C348.29196152 481.81719131 347.59973495 482.64219131 346.88653183 483.49219131 C346.08315384 484.51970505 345.27977585 485.54721878 344.45205307 486.60586929 C340.89356918 490.105774 337.75204232 490.19739299 332.90542221 490.23871231 C331.86100967 490.21714066 330.81659714 490.195569 329.74053574 490.17334366 C328.62775253 490.17421982 327.51496933 490.17509598 326.36846542 490.17599869 C322.69928831 490.17182669 319.03195112 490.1251881 315.36309433 490.07812881 C312.81577172 490.06693542 310.26843619 490.05839592 307.72109604 490.0524025 C301.70729736 490.03185364 295.69428549 489.98459341 289.68080175 489.92430556 C282.83203484 489.85714046 275.9832358 489.82422655 269.13422132 489.79413295 C255.05129454 489.7314901 240.96894924 489.62601803 226.88653183 489.49219131 C226.04201875 475.64613447 225.40787963 461.80643184 225.02129364 447.93962097 C224.83542806 441.49444353 224.58512034 435.06717619 224.17071152 428.63232803 C222.44891787 401.0715237 222.72601599 379.0678149 240.58965683 356.88281631 C262.88653183 342.49219131 262.88653183 342.49219131 333.88653183 342.49219131 C333.88653183 277.81219131 333.88653183 213.13219131 333.88653183 146.49219131 C223.00653183 146.49219131 112.12653183 146.49219131 -2.11346817 146.49219131 C-2.11346817 211.17219131 -2.11346817 275.85219131 -2.11346817 342.49219131 C32.86653183 342.49219131 67.84653183 342.49219131 103.88653183 342.49219131 C104.12718469 369.99346492 104.12718469 369.99346492 104.17950058 381.70508194 C104.2153854 389.70054158 104.25786201 397.69553438 104.33916855 405.69067764 C104.40430188 412.13569847 104.44022606 418.58027783 104.45579529 425.02560234 C104.46689221 427.48607014 104.48856183 429.94651345 104.52091217 432.40679359 C104.56439272 435.8500996 104.57046907 439.29157542 104.56768417 442.73511124 C104.58925583 443.75506683 104.61082748 444.77502243 104.63305283 445.82588577 C104.57362713 452.60455127 104.57362713 452.60455127 102.58244324 455.17690849 C100.98165512 456.50777054 100.98165512 456.50777054 97.88653183 458.49219131 C96.42179779 460.15949495 95.00374946 461.86903137 93.63653183 463.61719131 C89.7609005 468.47151742 85.68742675 473.0616065 81.44121933 477.59375381 C78.89029262 480.2152566 78.89029262 480.2152566 77.84695721 482.70807171 C76.17416637 485.79223278 74.76180141 487.43917115 71.88653183 489.49219131 C65.12278715 491.29244394 57.73486723 490.62620109 50.80474472 490.51391983 C48.59117367 490.51116191 46.37759469 490.5123658 44.16402721 490.51720715 C38.24029483 490.51923761 32.31820138 490.46711075 26.3948555 490.40371323 C20.83502205 490.35242513 15.27558548 490.35004364 9.71551132 490.34363174 C-6.54019861 490.2964217 -22.79560414 490.17077089 -39.05096817 490.05469131 C-75.37159317 489.86906631 -111.69221817 489.68344131 -149.11346817 489.49219131 C-149.11346817 375.64219131 -149.11346817 261.79219131 -149.11346817 144.49219131 C-149.77346817 144.16219131 -150.43346817 143.83219131 -151.11346817 143.49219131 C-145.6616002 137.950127 -140.22953208 132.49305738 -134.29706192 127.46094131 C-130.75713359 124.26930647 -127.45287112 120.83650129 -124.14886856 117.40259171 C-122.8398712 116.06283963 -121.48033943 114.77284454 -120.11346817 113.49219131 C-119.45346817 113.49219131 -118.79346817 113.49219131 -118.11346817 113.49219131 C-118.11346817 112.83219131 -118.11346817 112.17219131 -118.11346817 111.49219131 C-117.12346817 110.83219131 -116.13346817 110.17219131 -115.11346817 109.49219131 C-114.61846817 108.00719131 -114.61846817 108.00719131 -114.11346817 106.49219131 C-90.35346817 106.49219131 -66.59346817 106.49219131 -42.11346817 106.49219131 C-42.70483316 84.17298269 -42.70483316 84.17298269 -43.46478653 61.85937881 C-44.02775959 36.86291876 -44.02775959 36.86291876 -36.90022659 28.53271866 C-34.36051085 26.06046056 -31.74600308 23.84539976 -28.86893082 21.77655411 C-26.54104476 20.07338472 -24.59378742 18.0818281 -22.61346817 15.99219131 C-22.02049942 15.40953506 -21.42753067 14.82687881 -20.81659317 14.22656631 C-18.3408109 11.70535684 -16.04386178 9.04148867 -13.75409317 6.35156631 C-12.9419838 5.43117569 -12.9419838 5.43117569 -12.11346817 4.49219131 C-11.58697056 3.80399315 -11.06047295 3.11579499 -10.51802087 2.40674233 C-7.15746208 -0.26899908 -4.1147754 -0.05597823 0 0 Z M-18.11346817 14.49219131 C-19.23204387 15.69509461 -20.37769735 16.87436378 -21.56659317 18.00781631 C-26.47450974 22.80605877 -31.27650948 27.62403408 -35.71112442 32.87109756 C-37.11346817 34.49219131 -37.11346817 34.49219131 -38.67982864 35.65913773 C-40.88578763 38.47968011 -40.47255493 40.90662076 -40.45404434 44.44214249 C-40.45448242 45.14483765 -40.4549205 45.84753281 -40.45537186 46.57152176 C-40.45328264 48.89301767 -40.42994636 51.2137904 -40.40643692 53.53516006 C-40.40084141 55.14512614 -40.3965711 56.75509733 -40.39357376 58.36507034 C-40.38212135 62.60174039 -40.35265096 66.83810171 -40.31946182 71.07464981 C-40.28876936 75.39803262 -40.2750702 79.72146533 -40.25995255 84.04492569 C-40.22778147 92.52748921 -40.17658055 101.00980186 -40.11346817 109.49219131 C-40.99994537 109.47664703 -41.88642258 109.46110275 -42.79976273 109.44508743 C-51.17089987 109.30458725 -59.54163877 109.19813245 -67.9136858 109.12950611 C-72.2175283 109.09303709 -76.52039331 109.04360658 -80.82367325 108.96411514 C-84.97995355 108.88782324 -89.1352963 108.84615342 -93.29222298 108.82805061 C-94.87471586 108.81515748 -96.45715976 108.78997843 -98.03925133 108.75208092 C-106.63838973 108.30078865 -106.63838973 108.30078865 -114.55777359 110.98727798 C-116.30391234 112.72974216 -117.67380934 114.4966218 -119.11346817 116.49219131 C-120.29523076 117.56390773 -121.50183605 118.60928264 -122.73846817 119.61719131 C-127.1854447 123.43881177 -131.27332599 127.59597287 -135.36981583 131.78564835 C-137.98691311 134.4444013 -140.62117908 136.96637976 -143.51190567 139.32812881 C-144.79967911 140.39933975 -144.79967911 140.39933975 -146.11346817 141.49219131 C-146.11346817 141.82219131 -146.11346817 142.15219131 -146.11346817 142.49219131 C-134.56346817 142.49219131 -123.01346817 142.49219131 -111.11346817 142.49219131 C-111.11346817 143.15219131 -111.11346817 143.81219131 -111.11346817 144.49219131 C-122.66346817 144.49219131 -134.21346817 144.49219131 -146.11346817 144.49219131 C-146.11346817 257.35219131 -146.11346817 370.21219131 -146.11346817 486.49219131 C-76.48346817 486.49219131 -6.85346817 486.49219131 64.88653183 486.49219131 C65.74403145 462.14863195 65.74403145 462.14863195 65.98418808 437.81641006 C65.98270614 436.31693942 65.98169321 434.81746825 65.98113632 433.31799698 C65.97602843 427.93855354 65.96207105 422.55912138 65.94903183 417.17969131 C65.92840683 405.07281631 65.90778183 392.96594131 65.88653183 380.49219131 C30.90653183 380.49219131 -4.07346817 380.49219131 -40.11346817 380.49219131 C-40.11346817 302.61219131 -40.11346817 224.73219131 -40.11346817 144.49219131 C83.96653183 144.49219131 208.04653183 144.49219131 335.88653183 144.49219131 C335.88653183 222.37219131 335.88653183 300.25219131 335.88653183 380.49219131 C300.90653183 380.49219131 265.92653183 380.49219131 229.88653183 380.49219131 C229.88653183 415.47219131 229.88653183 450.45219131 229.88653183 486.49219131 C264.86653183 486.49219131 299.84653183 486.49219131 335.88653183 486.49219131 C335.88653183 474.94219131 335.88653183 463.39219131 335.88653183 451.49219131 C336.87653183 451.49219131 337.86653183 451.49219131 338.88653183 451.49219131 C338.88653183 428.72219131 338.88653183 405.95219131 338.88653183 382.49219131 C349.77653183 382.49219131 360.66653183 382.49219131 371.88653183 382.49219131 C371.88653183 381.83219131 371.88653183 381.17219131 371.88653183 380.49219131 C395.31653183 380.49219131 418.74653183 380.49219131 442.88653183 380.49219131 C442.73877304 370.27975479 442.59101425 360.06731827 442.43877792 349.54541397 C441.98851081 316.74427492 441.70808436 283.94360659 441.5324929 251.13989381 C441.50499425 246.03140718 441.47600835 240.92293001 441.44610214 235.81445694 C441.4401742 234.79759463 441.43424626 233.78073232 441.42813869 232.73305599 C441.3290322 216.33885541 441.10989135 199.9483986 440.84514217 183.55613144 C440.57552002 166.69380715 440.43777248 149.83398708 440.41849005 132.96950376 C440.40399729 123.51246268 440.33092592 114.06380236 440.10651398 104.60921478 C438.62355394 40.13586838 438.62355394 40.13586838 453.96489346 22.52026641 C460.22427588 15.97512826 467.2159102 10.38381623 474.82159996 5.48343849 C476.33874124 4.49777114 476.33874124 4.49777114 477.88653183 3.49219131 C477.88653183 3.16219131 477.88653183 2.83219131 477.88653183 2.49219131 C431.80351058 2.28674134 385.72044893 2.09569778 339.63709641 1.98407364 C338.61379028 1.98158861 338.61379028 1.98158861 337.56981131 1.97905338 C322.743163 1.94313728 307.91650981 1.90989527 293.08984936 1.87940736 C285.81870663 1.86443951 278.54756522 1.84888084 271.27642441 1.83301163 C270.55286405 1.83144252 269.82930369 1.82987341 269.08381727 1.82825675 C245.63714136 1.77713357 222.19081281 1.68700808 198.74434728 1.57662467 C174.64711733 1.46338375 150.55007956 1.38955463 126.45258803 1.36521143 C123.04787647 1.36175365 119.64316556 1.35784601 116.23845482 1.3536644 C115.56836849 1.35285532 114.89828216 1.35204625 114.20789018 1.35121265 C104.09487049 1.33791723 93.9823836 1.29004954 83.86958504 1.22343063 C72.36044498 1.1478878 60.85208902 1.11254032 49.34269824 1.13017479 C43.4694035 1.13786687 37.59785212 1.12601983 31.72486687 1.06172562 C26.34541957 1.00326456 20.96888497 1.00041098 15.5893027 1.04140458 C13.6455887 1.0464694 11.70169195 1.03128924 9.75833692 0.99359313 C-4.08223484 0.74077721 -10.12407129 3.11962698 -18.11346817 14.49219131 Z " fill="#1B1D1C" transform="translate(348.113468170166,266.50780868530273)"/>
<path d="M0 0 C0.7702265 0.01050805 1.540453 0.02101611 2.33401969 0.03184259 C3.56750385 0.02491952 3.56750385 0.02491952 4.82590687 0.0178566 C7.60548714 0.00719535 10.38415671 0.02527333 13.1636906 0.04301584 C15.16681016 0.04127294 17.16992884 0.03777321 19.17304263 0.03265917 C24.69614363 0.02368016 30.21893661 0.03976297 35.74199834 0.05977142 C41.69087661 0.07699001 47.63973645 0.07120369 53.58863261 0.06816232 C63.90168314 0.06606141 74.2146399 0.07850889 84.52766421 0.10111368 C95.34623317 0.12476588 106.16476188 0.14017424 116.98335651 0.14452493 C117.65552847 0.14479989 118.32770044 0.14507485 119.02024126 0.14535814 C122.43373613 0.14671144 125.84723104 0.14791698 129.26072598 0.14906564 C153.4508865 0.15747169 177.64099441 0.18443336 201.83112529 0.22227609 C225.33437765 0.25900189 248.83761562 0.28734218 272.34089091 0.30430734 C273.42722472 0.3050965 273.42722472 0.3050965 274.53550467 0.3059016 C281.80831467 0.31117559 289.08112477 0.31627886 296.35393498 0.32125704 C311.17004773 0.33140242 325.98615954 0.34268743 340.80227092 0.35466135 C341.48352118 0.35521051 342.16477143 0.35575967 342.86666564 0.35632547 C388.37461647 0.39314035 433.88253681 0.45660564 479.39045146 0.5240339 C478.83227276 1.1617246 478.83227276 1.1617246 478.26281772 1.81229793 C475.68237475 4.78731024 473.16073774 7.77413858 470.80158219 10.92857605 C461.25210166 23.6104078 450.47348843 36.61686933 434.0384827 39.17168748 C422.84258338 40.5236332 411.52351446 40.19443868 400.27482739 39.88993692 C394.38102151 39.7630849 388.48795396 39.80719084 382.59316447 39.82910287 C372.41311938 39.84421148 362.2385199 39.75429984 352.059845 39.59020555 C341.40193997 39.41849854 330.74642797 39.30682756 320.08728412 39.27547395 C319.42105842 39.2734805 318.75483272 39.27148705 318.06841837 39.2694332 C314.68407846 39.25961959 311.29973668 39.25088018 307.91539282 39.24255379 C284.03215244 39.18187069 260.15174047 38.98714449 236.27009013 38.71177804 C213.09022858 38.44481483 189.91114504 38.23969734 166.73005107 38.11705148 C166.01373038 38.11323722 165.29740969 38.10942296 164.55938231 38.10549312 C157.36485821 38.06725134 150.17032815 38.03025344 142.97579294 37.9941662 C128.32371357 37.92064422 113.67168439 37.83882797 99.01967815 37.75198495 C98.34621389 37.74800355 97.67274964 37.74402214 96.97887738 37.73992008 C52.11488393 37.47374193 7.25249818 37.0136989 -37.60954854 36.5240339 C-36.14583867 33.47505998 -34.6363213 31.26115244 -32.30095479 28.80137765 C-31.64119649 28.10294748 -30.98143819 27.4045173 -30.30168721 26.68492258 C-29.59890645 25.95120431 -28.89612569 25.21748605 -28.17204854 24.4615339 C-27.45573262 23.70654611 -26.7394167 22.95155832 -26.00139424 22.17369211 C-21.00741069 16.92925466 -15.92994688 11.77992019 -10.74626729 6.72325265 C-8.57424732 4.6875876 -8.57424732 4.6875876 -7.47247663 2.41734469 C-5.09351951 -0.00041109 -3.303243 0.04230138 0 0 Z " fill="#F771F9" transform="translate(346.60954853892326,268.4759660959244)"/>
<path d="M0 0 C0.27478143 43.23692355 0.48617379 86.47374619 0.61278395 129.71137021 C0.62779209 134.818161 0.64332399 139.92495006 0.65917969 145.03173828 C0.66232741 146.04839019 0.66547514 147.06504211 0.66871825 148.11250165 C0.72090709 164.56520563 0.81550637 181.01740548 0.92583355 197.46981058 C1.03812852 214.35674238 1.10472131 231.2434105 1.12906194 248.13070035 C1.14551222 258.54793739 1.19742774 268.96374945 1.2949976 279.38054773 C1.3585251 286.52781686 1.37758038 293.67435145 1.36201653 300.82188228 C1.35434371 304.9437379 1.36593641 309.06310762 1.4304657 313.18451881 C1.83780006 340.51652189 1.83780006 340.51652189 -4.2264545 347.30789208 C-6.64071071 349.4937307 -9.25804282 351.25218544 -12 353 C-13.89533022 354.94251705 -13.89533022 354.94251705 -15.3125 356.8125 C-18.99595482 361.05289991 -22.91017974 365.02408028 -26.875 369 C-27.89460815 370.02637573 -27.89460815 370.02637573 -28.93481445 371.07348633 C-29.57249756 371.70923584 -30.21018066 372.34498535 -30.8671875 373 C-31.73512939 373.86625 -31.73512939 373.86625 -32.62060547 374.75 C-34 376 -34 376 -35 376 C-35.78086618 333.01158751 -36.37864475 290.02400322 -36.7362212 247.02988476 C-36.77873735 241.93641553 -36.82274507 236.8429602 -36.86767578 231.74951172 C-36.87659434 230.73564002 -36.88551289 229.72176832 -36.8947017 228.67717324 C-37.04203445 212.33117487 -37.30974119 195.98930628 -37.62319507 179.64574553 C-37.94291061 162.83351549 -38.13035854 146.02342385 -38.19900882 129.20827949 C-38.24119632 119.77888901 -38.34211166 110.35812556 -38.59482193 100.93182755 C-40.27011173 36.66398977 -40.27011173 36.66398977 -24.97839868 19.00017965 C-6.90665338 0 -6.90665338 0 0 0 Z " fill="#00CCEF" transform="translate(826,270)"/>
<path d="M0 0 C7.39807161 6.06469824 12.92363777 14.54136265 16.578125 23.33984375 C16.93648437 24.17386719 17.29484375 25.00789062 17.6640625 25.8671875 C18.96531807 30.8108465 18.90693023 35.56184975 18.890625 40.65234375 C18.90673828 41.64685547 18.92285156 42.64136719 18.93945312 43.66601562 C18.94369431 50.12534376 18.04693336 55.37502503 15.578125 61.33984375 C15.22492188 62.23574219 14.87171875 63.13164063 14.5078125 64.0546875 C7.92566047 77.92596345 -3.25766867 87.25431172 -17.50390625 92.39453125 C-29.92688907 96.41911203 -45.63101034 96.00677095 -57.421875 90.33984375 C-72.00495231 81.95876484 -81.60769276 70.84426637 -86.296875 54.46484375 C-89.48037118 39.82457389 -87.19998111 26.28426558 -79.609375 13.40234375 C-71.66108531 1.34841177 -60.42153877 -7.08054449 -46.359375 -10.84765625 C-29.56288595 -14.22412253 -13.88770907 -9.51980057 0 0 Z " fill="#00CDF0" transform="translate(622.421875,489.66015625)"/>
<path d="M0 0 C15.84 0.495 15.84 0.495 32 1 C32.72156888 26.14829335 33.27278083 51.29404605 33.60617733 76.45065403 C33.76519157 88.13534697 33.98137998 99.81344367 34.33862305 111.49389648 C34.65033296 121.69056758 34.84821205 131.88246118 34.91674334 142.08376449 C34.9567463 147.47479676 35.04864368 152.85218165 35.27763176 158.23877144 C36.08186241 177.896156 36.73379481 194.77181805 22.86639243 210.01912421 C16.13983248 216.97280966 8.82754741 223.3164501 1 229 C0.67 229 0.34 229 0 229 C0 153.43 0 77.86 0 0 Z " fill="#00CCEF" transform="translate(310,414)"/>
<path d="M0 0 C9.24 0 18.48 0 28 0 C28 13.2 28 26.4 28 40 C40.87 40 53.74 40 67 40 C67 49.57 67 59.14 67 69 C54.13 69 41.26 69 28 69 C28 80.55 28 92.1 28 104 C18.76 104 9.52 104 0 104 C0 92.45 0 80.9 0 69 C-12.54 69 -25.08 69 -38 69 C-38 59.1 -38 49.2 -38 39 C-25.46 39 -12.92 39 0 39 C0 26.13 0 13.26 0 0 Z " fill="#F870FB" transform="translate(417,479)"/>
<path d="M0 0 C0.20899515 13.36963416 0.36868079 26.73887656 0.46630955 40.10981464 C0.51317925 46.3193229 0.57670061 52.52770949 0.67895508 58.73657227 C0.77710849 64.73429999 0.83063443 70.73095242 0.85389519 76.72942162 C0.8704603 79.01198431 0.90280944 81.29449147 0.95157051 83.5765934 C1.36411195 103.69355488 1.36411195 103.69355488 -4.38305664 110.7956543 C-5.87856935 112.2433983 -7.41239882 113.65387836 -9 115 C-9.93299063 116.0165052 -10.85311411 117.04525106 -11.75 118.09375 C-12.4925 118.8878125 -13.235 119.681875 -14 120.5 C-18.2225991 125.0849126 -22.19400497 129.82300439 -26.08984375 134.6875 C-29.16593953 138.41152597 -29.16593953 138.41152597 -31 140 C-31.66 140 -32.32 140 -33 140 C-33.02337482 129.14968228 -33.04104124 118.29937074 -33.05181217 107.44903278 C-33.05698682 102.40847687 -33.06398343 97.36793844 -33.07543945 92.32739258 C-33.08646417 87.44495159 -33.09231738 82.56252719 -33.09487724 77.68007469 C-33.0966968 75.835774 -33.10024776 73.991474 -33.10573006 72.14718056 C-33.13387578 62.26777587 -33.0359298 52.39532034 -32.68579102 42.52148438 C-32.66428262 41.64399693 -32.64277422 40.76650949 -32.62061405 39.86243153 C-32.37119941 33.96500729 -31.37679791 30.14741116 -26.98266602 25.91967773 C-26.28713623 25.34805908 -25.59160645 24.77644043 -24.875 24.1875 C-23.42172979 22.82967237 -21.96994617 21.47025219 -20.51953125 20.109375 C-19.77396973 19.44228516 -19.0284082 18.77519531 -18.26025391 18.08789062 C-14.4675303 14.58439394 -11.04011057 10.74944718 -7.5625 6.9375 C-6.3177014 5.58883842 -5.06936093 4.24343143 -3.81640625 2.90234375 C-3.29506104 2.34023193 -2.77371582 1.77812012 -2.23657227 1.19897461 C-1 0 -1 0 0 0 Z " fill="#00CDF0" transform="translate(449,614)"/>
<path d="M0 0 C6.03894459 0.26940064 12.08082263 0.38542386 18.12408447 0.51574707 C29.91291544 0.79191234 41.68889946 1.23356928 53.46783447 1.78527832 C51.75757981 5.44962783 49.70785524 7.71983722 46.78033447 10.53527832 C43.08607155 14.15015164 39.62123116 17.83702588 36.26861572 21.76574707 C33.42187188 24.95829928 30.35296861 27.92075799 27.28814697 30.90246582 C25.40399549 32.66281171 25.40399549 32.66281171 24.46783447 34.78527832 C-10.51216553 34.78527832 -45.49216553 34.78527832 -81.53216553 34.78527832 C-79.55216553 32.47527832 -77.57216553 30.16527832 -75.53216553 27.78527832 C-74.05335854 25.68779153 -72.58467537 23.58312904 -71.12640381 21.47131348 C-52.32979098 -3.63422714 -29.1610051 -1.44109763 0 0 Z " fill="#F972FA" transform="translate(392.53216552734375,610.2147216796875)"/>
<path d="M0 0 C1.27685165 0.00222061 2.55370331 0.00444122 3.86924744 0.00672913 C4.57165054 0.0065831 5.27405365 0.00643707 5.9977417 0.00628662 C8.32985983 0.00698579 10.66189904 0.01477835 12.9940033 0.02259827 C14.60683142 0.02446243 16.21966012 0.02588634 17.83248901 0.02688599 C22.08550062 0.03071129 26.33847828 0.04054167 30.59147644 0.05158997 C35.69006397 0.06359839 40.78866282 0.06820627 45.88726044 0.07404327 C53.64031294 0.08375342 61.39329092 0.10290987 69.14634705 0.12025452 C69.14634705 11.01025452 69.14634705 21.90025452 69.14634705 33.12025452 C34.16634705 33.12025452 -0.81365295 33.12025452 -36.85365295 33.12025452 C-32.42933213 27.58985348 -32.42933213 27.58985348 -29.41615295 25.12025452 C-25.52682809 21.80524118 -21.94104405 18.2534991 -18.35365295 14.62025452 C-13.68967297 9.90183118 -8.9299171 5.3980052 -3.85365295 1.12025452 C-2.85365295 0.12025452 -2.85365295 0.12025452 0 0 Z " fill="#FA71FD" transform="translate(238.85365295410156,375.87974548339844)"/>
<path d="M0 0 C0 10.89 0 21.78 0 33 C-33.66 33 -67.32 33 -102 33 C-80.52076234 -9.95847532 -41.46689335 -2.91328645 0 0 Z " fill="#F770FB" transform="translate(682,612)"/>
<path d="M0 0 C10.89 0 21.78 0 33 0 C33.28076167 16.93928714 33.28076167 16.93928714 33.34179688 24.18554688 C33.38357051 29.12155123 33.43286964 34.05664274 33.52807617 38.99194336 C33.60439295 42.97316384 33.64604276 46.95340509 33.6641407 50.93530083 C33.67702954 52.45081429 33.70220032 53.96627686 33.7401104 55.48137093 C34.02541687 67.36122255 34.02541687 67.36122255 31.47470093 71.43766785 C29.73970365 73.1780705 27.99341035 74.57325196 26 76 C24.5530509 77.7039073 23.13311441 79.43138032 21.75 81.1875 C17.53404939 86.43032022 13.06950833 91.35992037 8.48046875 96.2734375 C5.97129494 98.95748749 5.97129494 98.95748749 3.80078125 101.8515625 C3.20652344 102.56054688 2.61226562 103.26953125 2 104 C1.34 104 0.68 104 0 104 C0 69.68 0 35.36 0 0 Z " fill="#01CCEE" transform="translate(687,649)"/>
<path d="M0 0 C123.75 0 247.5 0 375 0 C375 77.55 375 155.1 375 235 C339.69 235 304.38 235 268 235 C268.07922035 270.12380979 268.07922035 270.12380979 268.18017578 305.24755859 C268.18920898 312.03051758 268.18920898 312.03051758 268.19088745 315.20278931 C268.19396486 317.42520955 268.20101175 319.64762639 268.21115112 321.87002563 C268.22571961 325.23030426 268.22781439 328.59037828 268.22705078 331.95068359 C268.234247 332.94590216 268.24144321 333.94112072 268.2488575 334.96649742 C268.2461025 335.86768114 268.24334751 336.76886486 268.24050903 337.69735718 C268.24327441 338.87817399 268.24327441 338.87817399 268.24609566 340.08284569 C268 342 268 342 266 344 C265.15548692 330.15394315 264.5213478 316.31424052 264.13476181 302.44742966 C263.94889623 296.00225221 263.69858851 289.57498487 263.28417969 283.14013672 C261.56238604 255.57933238 261.83948416 233.57562359 279.703125 211.390625 C302 197 302 197 373 197 C373 132.32 373 67.64 373 1 C262.12 1 151.24 1 37 1 C37 65.68 37 130.36 37 197 C71.98 197 106.96 197 143 197 C143 197.33 143 197.66 143 198 C89.54 198.495 89.54 198.495 35 199 C35 133.66 35 68.32 35 1 C23.78 1 12.56 1 1 1 C1 76.9 1 152.8 1 231 C0.67 231 0.34 231 0 231 C0 154.77 0 78.54 0 0 Z M272.71899414 227.92724609 C270.83725821 230.70408871 270.83725821 230.70408871 271 233 C304.66 233 338.32 233 373 233 C373 222.11 373 211.22 373 200 C361.79489879 199.15438917 350.65884388 198.42273085 339.4375 198.0625 C338.21237764 198.02313702 338.21237764 198.02313702 336.96250534 197.98297882 C307.74371208 197.1561226 289.27763168 201.86836472 272.71899414 227.92724609 Z " fill="#1D1C1D" transform="translate(309,412)"/>
<path d="M0 0 C124.08 0 248.16 0 376 0 C376 0.33 376 0.66 376 1 C252.25 1 128.5 1 1 1 C1 77.23 1 153.46 1 232 C3.64 229.69 6.28 227.38 9 225 C10.96945462 223.53974451 12.94907153 222.09303939 14.94116211 220.66381836 C25.20540851 212.75536721 33.4069641 204.53225328 35.15283203 191.23486328 C36.24138883 180.45766506 35.93112418 169.59692137 35.63538361 158.78651428 C35.51202314 153.32965057 35.52734981 147.87304746 35.52685547 142.41503906 C35.50541372 132.11794489 35.36245409 121.82641361 35.17383957 111.5311718 C34.96488774 99.79483494 34.89440598 88.05887794 34.83452415 76.32098198 C34.70847702 52.21123926 34.40697611 28.10649814 34 4 C23.77 4 13.54 4 3 4 C2.67 3.34 2.34 2.68 2 2 C13.22 2 24.44 2 36 2 C36 67.34 36 132.68 36 200 C36.99 199.67 37.98 199.34 39 199 C40.44683288 198.91138251 41.89742642 198.87801365 43.3469696 198.87974548 C44.23457977 198.87837082 45.12218994 198.87699615 46.03669739 198.87557983 C47.00773911 198.87917511 47.97878082 198.88277039 48.97924805 198.88647461 C50.51609253 198.88625557 50.51609253 198.88625557 52.08398438 198.8860321 C55.4765839 198.88672977 58.86912879 198.89451538 62.26171875 198.90234375 C64.6115567 198.90420845 66.96139504 198.90563211 69.31123352 198.90663147 C75.50083486 198.91045257 81.6904128 198.9202794 87.88000488 198.93133545 C94.19408858 198.94155831 100.50817604 198.94613097 106.82226562 198.95117188 C119.21485404 198.96190201 131.60742508 198.97897357 144 199 C144.14021822 213.25571835 144.24559507 227.51132965 144.31087303 241.76759624 C144.34220147 248.38721806 144.38470405 255.00637702 144.45263672 261.62573242 C144.51777207 268.01239897 144.55369464 274.39862 144.56926346 280.78559303 C144.58036002 283.22373279 144.60202897 285.66184783 144.63438034 288.0997982 C144.67786368 291.51197601 144.68393714 294.92230704 144.68115234 298.3347168 C144.702724 299.34532166 144.72429565 300.35592651 144.746521 301.39715576 C144.68709429 308.11531175 144.68709429 308.11531175 142.69591141 310.6791172 C141.09512329 312.00984192 141.09512329 312.00984192 138 314 C136.53526596 315.66730364 135.11721763 317.37684006 133.75 319.125 C130.58270918 323.09211173 127.32048553 326.89675426 123.875 330.625 C119.63951543 335.22447152 115.73659152 339.98900807 112 345 C108.125 344.125 108.125 344.125 107 343 C106.83992528 341.10085942 106.74950823 339.19582506 106.68579102 337.29101562 C106.62330421 335.4361554 106.62330421 335.4361554 106.55955505 333.54382324 C106.51956721 332.16464957 106.4802045 330.78545765 106.44140625 329.40625 C106.40982013 328.35130089 106.40982013 328.35130089 106.3775959 327.27503967 C105.8297049 308.68491709 105.89078567 290.09643698 105.9375 271.5 C105.958125 259.785 105.97875 248.07 106 236 C71.02 236 36.04 236 0 236 C0 158.12 0 80.24 0 0 Z M3 233 C3 233.33 3 233.66 3 234 C16.69955511 234.18543526 30.39881124 234.32754618 44.09936619 234.41449738 C50.46130797 234.45623206 56.8223906 234.51283184 63.18383789 234.60351562 C69.32416653 234.69049861 75.46366935 234.73828707 81.60456657 234.75901794 C83.94621723 234.77378942 86.28782313 234.80263582 88.62912178 234.84584045 C91.9120222 234.90400629 95.19151995 234.91190941 98.47485352 234.90820312 C99.44086487 234.93696533 100.40687622 234.96572754 101.40216064 234.99536133 C105.40415788 234.94654258 107.96880676 234.85345861 111.12080193 232.24473572 C112.88615234 230.23556331 114.44900768 228.17634914 116 226 C117.48064755 224.48089407 118.97744748 222.97710319 120.5 221.5 C123.9637805 218.08326575 127.20028503 214.55337547 130.359375 210.85546875 C131.98009509 209.02251151 133.67738411 207.32342959 135.4375 205.625 C138.23284557 203.37287237 138.23284557 203.37287237 138 201 C125.1272042 200.24980634 112.25979381 199.68585344 99.3693924 199.3420105 C93.37841467 199.17671217 87.40262862 198.95399113 81.42041016 198.5859375 C44.90012964 196.39629389 24.39530997 202.06940225 3 233 Z M138.3984375 204.46875 C134.38240865 208.50028475 130.55502658 212.6181809 126.84765625 216.93359375 C124.81089408 219.21149478 122.67525925 221.35418588 120.5 223.5 C119.7471875 224.26828125 118.994375 225.0365625 118.21875 225.828125 C116 228 116 228 113.90625 229.609375 C110.28087174 232.7295776 108.85299362 235.59045893 108.49171448 240.32414246 C108.41852988 242.04648014 108.36181363 243.7695697 108.31860352 245.49291992 C108.28544572 246.4210786 108.25228792 247.34923727 108.21812534 248.30552197 C107.89683593 258.15666784 107.87304832 268.00803542 107.90234375 277.86328125 C107.90421641 279.7614081 107.90563629 281.65953545 107.90663147 283.55766296 C107.91039001 288.47455254 107.9201605 293.39141101 107.93133545 298.30828857 C107.94169569 303.35721415 107.94615989 308.40614491 107.95117188 313.45507812 C107.96179113 323.30339884 107.97878381 333.1516968 108 343 C111.55095777 341.34004647 113.5854939 339.52471095 116.1875 336.5625 C116.97640625 335.6653125 117.7653125 334.768125 118.578125 333.84375 C121.66537859 330.21871676 124.66065579 326.52430712 127.65234375 322.8203125 C130.9782609 318.82478474 134.4921722 315.021537 138.03125 311.21484375 C140.69641669 308.21653122 141.1249614 306.71796552 141.12025452 302.81124878 C141.12162918 301.93342743 141.12300385 301.05560608 141.12442017 300.15118408 C141.12082489 299.18589783 141.11722961 298.22061157 141.11352539 297.22607422 C141.11367142 296.21141083 141.11381744 295.19674744 141.1139679 294.15133667 C141.11326928 290.78576546 141.10547922 287.42024908 141.09765625 284.0546875 C141.09579189 281.72584056 141.09436807 279.39699323 141.09336853 277.06814575 C141.08954476 270.92949344 141.07971566 264.79086467 141.06866455 258.65222168 C141.05844742 252.39184894 141.05387026 246.13147241 141.04882812 239.87109375 C141.03809329 227.5807188 141.02101853 215.29036136 141 203 C139.76065598 202.8873521 139.76065598 202.8873521 138.3984375 204.46875 Z " fill="#2A3028" transform="translate(308,411)"/>
<path d="M0 0 C0.66 0.66 1.32 1.32 2 2 C0.68 3.32 -0.64 4.64 -2 6 C9.22 6.33 20.44 6.66 32 7 C32 7.66 32 8.32 32 9 C20.45 9 8.9 9 -3 9 C-3 121.86 -3 234.72 -3 351 C66.63 351 136.26 351 208 351 C208 341.43 208 331.86 208 322 C208.66 321.34 209.32 320.68 210 320 C210.02505615 320.95890137 210.0501123 321.91780273 210.07592773 322.90576172 C210.1699862 326.45798477 210.27021058 330.01001156 210.37231445 333.56201172 C210.41566926 335.10037653 210.45734395 336.63878963 210.49731445 338.17724609 C210.55500398 340.3865414 210.61870179 342.59559348 210.68359375 344.8046875 C210.70866249 345.83914505 210.70866249 345.83914505 210.73423767 346.89450073 C210.80806995 350.57114264 210.80806995 350.57114264 212 354 C140.06 354 68.12 354 -6 354 C-6 240.15 -6 126.3 -6 9 C-6.66 8.67 -7.32 8.34 -8 8 C-5.36 5.36 -2.72 2.72 0 0 Z " fill="#3C341E" transform="translate(205,402)"/>
<path d="M0 0 C0.9175708 0.00757324 1.8351416 0.01514648 2.78051758 0.02294922 C18.86677328 0.41248824 31.6291042 7.97959177 42.625 19.4375 C51.44048513 30.15766929 56.02824063 41.808641 56 55.6875 C55.99838867 56.51870361 55.99677734 57.34990723 55.99511719 58.20629883 C55.85710487 65.17930332 54.5007402 71.05695143 51.625 77.4375 C51.33625 78.14777344 51.0475 78.85804688 50.75 79.58984375 C44.78197947 93.04453289 32.97794611 102.86130008 19.76171875 108.703125 C6.58828126 113.45694488 -7.83898528 113.08756825 -20.8671875 108.12109375 C-26.92181164 105.21514386 -32.12482421 101.63324718 -37.375 97.4375 C-38.06207031 96.89480469 -38.74914062 96.35210938 -39.45703125 95.79296875 C-48.26121067 87.94274105 -54.72811098 74.85807567 -55.53027344 63.17626953 C-56.42451853 44.13476139 -56.42451853 44.13476139 -52.375 35.4375 C-51.9728125 34.55191406 -51.570625 33.66632813 -51.15625 32.75390625 C-44.29742485 19.01720365 -32.63075056 7.91999594 -18.15551758 2.62573242 C-12.00696424 0.64080601 -6.44704732 -0.07518075 0 0 Z M-41.02490234 20.84423828 C-50.21890126 31.69415454 -54.06909579 44.74541886 -53.7265625 58.8515625 C-52.28251664 73.58083024 -46.18263095 86.40067126 -35.375 96.4375 C-21.78000335 107.46560917 -7.434439 110.07776165 9.625 108.4375 C23.81251624 105.96310346 36.10295074 97.62830903 44.41015625 85.921875 C53.17977146 71.87325309 54.8927173 56.06021557 51.9765625 39.828125 C49.76881877 33.29924183 45.81301287 27.84940704 41.625 22.4375 C40.861875 21.385625 40.09875 20.33375 39.3125 19.25 C28.81075858 8.25980549 14.76142704 2.51702856 -0.25 2.125 C-16.14286876 2.41489138 -30.23642749 9.23187577 -41.02490234 20.84423828 Z " fill="#192527" transform="translate(588.375,475.5625)"/>
<path d="M0 0 C12.21 0 24.42 0 37 0 C37 65.01 37 130.02 37 197 C71.98 197 106.96 197 143 197 C143 197.33 143 197.66 143 198 C89.54 198.495 89.54 198.495 35 199 C35 133.66 35 68.32 35 1 C23.78 1 12.56 1 1 1 C1 76.9 1 152.8 1 231 C0.67 231 0.34 231 0 231 C0 154.77 0 78.54 0 0 Z " fill="#191617" transform="translate(309,412)"/>
<path d="M0 0 C0.33 0 0.66 0 1 0 C1 34.98 1 69.96 1 106 C35.98 106 70.96 106 107 106 C107 94.45 107 82.9 107 71 C107.99 71 108.98 71 110 71 C110 82.55 110 94.1 110 106 C119.20840181 96.79159819 128.09562151 87.36404913 136 77 C136.7734375 78.68359375 136.7734375 78.68359375 137 81 C135.2265625 83.41015625 135.2265625 83.41015625 132.625 86.0625 C131.69283252 87.03408503 130.76320354 88.00811101 129.8359375 88.984375 C129.36124023 89.48130859 128.88654297 89.97824219 128.39746094 90.49023438 C125.48384441 93.63799898 122.86605898 97.03537217 120.203125 100.39453125 C119.47609375 101.25433594 118.7490625 102.11414063 118 103 C117.19255341 104.02968903 116.38510681 105.05937805 115.55319214 106.12026978 C112.01426917 109.60112737 108.9043581 109.70505084 104.08235168 109.746521 C103.04728989 109.72494934 102.01222809 109.70337769 100.94580078 109.68115234 C99.84277115 109.6820285 98.73974152 109.68290466 97.60328674 109.68380737 C93.96656866 109.67963565 90.33170736 109.63299852 86.6953125 109.5859375 C84.17041023 109.57474401 81.64549492 109.56620455 79.12057495 109.56021118 C73.15996822 109.53966322 67.19995473 109.49240308 61.23965251 109.43211424 C52.59298404 109.34655949 43.94608832 109.31523523 35.29910278 109.27726746 C23.19885258 109.21912531 11.10033563 109.10414698 -1 109 C-0.67 73.03 -0.34 37.06 0 0 Z " fill="#3F3B21" transform="translate(577,647)"/>
<path d="M0 0 C10.56 0 21.12 0 32 0 C32 13.2 32 26.4 32 40 C44.87 40 57.74 40 71 40 C71 50.89 71 61.78 71 73 C51.2 72.505 51.2 72.505 31 72 C31.33 83.88 31.66 95.76 32 108 C22.43 108 12.86 108 3 108 C2.67 107.34 2.34 106.68 2 106 C11.24 106 20.48 106 30 106 C30 94.45 30 82.9 30 71 C42.87 71 55.74 71 69 71 C69 61.43 69 51.86 69 42 C56.13 42 43.26 42 30 42 C30 28.8 30 15.6 30 2 C20.76 2 11.52 2 2 2 C2 14.87 2 27.74 2 41 C-10.54 41 -23.08 41 -36 41 C-36 50.9 -36 60.8 -36 71 C-23.46 71 -10.92 71 2 71 C0 73 0 73 -3.71533203 73.22705078 C-5.31286052 73.22673351 -6.91041027 73.21539982 -8.5078125 73.1953125 C-9.76874222 73.19106766 -9.76874222 73.19106766 -11.05514526 73.18673706 C-13.74524046 73.1755243 -16.4350051 73.15041803 -19.125 73.125 C-20.94660978 73.1149716 -22.76822477 73.10584551 -24.58984375 73.09765625 C-29.06012625 73.07728122 -33.52969226 73.03813533 -38 73 C-38 62.11 -38 51.22 -38 40 C-25.46 40 -12.92 40 0 40 C0 26.8 0 13.6 0 0 Z " fill="#1E1D1E" transform="translate(415,477)"/>
<path d="M0 0 C11.22 0 22.44 0 34 0 C34 65.34 34 130.68 34 198 C67.99 198 101.98 198 137 198 C136.67 198.66 136.34 199.32 136 200 C134.78066772 199.92894043 133.56133545 199.85788086 132.30505371 199.78466797 C120.66337073 199.12844829 109.02553919 198.65293051 97.3693924 198.3420105 C91.37841467 198.17671217 85.40262862 197.95399113 79.42041016 197.5859375 C49.11879473 195.09660872 49.11879473 195.09660872 22.515625 207.265625 C14.36100567 214.63956578 7.40421693 223.08972005 1 232 C1 231.01 1 230.02 1 229 C3.10907292 227.15598104 5.23063257 225.46142225 7.45181274 223.76254272 C20.27306902 213.3544728 31.99654547 203.09470009 34.04527652 185.96686757 C34.87021636 176.05264959 34.5992009 166.10745915 34.24374723 156.17815065 C34.08178689 150.73767466 34.09463522 145.29731352 34.08706665 139.85482788 C34.04719089 129.59884398 33.85553425 119.35184987 33.60595381 109.09905756 C33.32896634 97.40649896 33.22626937 85.71429978 33.13646579 74.01904035 C32.94827907 50.00811085 32.54070525 26.0053599 32 2 C21.77 2 11.54 2 1 2 C0.67 1.34 0.34 0.68 0 0 Z " fill="#94944D" transform="translate(310,413)"/>
<path d="M0 0 C0.99 0.495 0.99 0.495 2 1 C0.54811406 4.35043397 -1.2819659 6.50486196 -3.88671875 9.046875 C-5.0478418 10.1915625 -5.0478418 10.1915625 -6.23242188 11.359375 C-7.04259766 12.14828125 -7.85277344 12.9371875 -8.6875 13.75 C-13.82511002 18.77455747 -18.84532208 23.8050623 -23.50317383 29.28222656 C-25 31 -25 31 -26.56652832 32.17298889 C-28.76908601 34.98022773 -28.40161223 37.42476166 -28.43237305 40.94995117 C-28.4425647 41.65264633 -28.45275635 42.35534149 -28.46325684 43.07933044 C-28.493437 45.40062378 -28.50266006 47.72150483 -28.51171875 50.04296875 C-28.52856179 51.65295285 -28.54671152 53.26292377 -28.56611633 54.87287903 C-28.61366355 59.10936362 -28.64344218 63.34579479 -28.66955566 67.5824585 C-28.6993375 71.90599115 -28.74587594 76.22933961 -28.79101562 80.55273438 C-28.87710239 89.03506586 -28.94442356 97.51741402 -29 106 C-29.8864772 105.9969838 -30.77295441 105.99396759 -31.68629456 105.99085999 C-40.05792001 105.96857568 -48.42869178 105.97986402 -56.80021763 106.02846622 C-61.10379041 106.05227782 -65.40659011 106.0632988 -69.71020508 106.04467773 C-73.86690643 106.02716978 -78.02222186 106.04379735 -82.17875481 106.08367729 C-83.76107331 106.09294128 -85.34351248 106.09009309 -86.92578316 106.07469368 C-95.53480658 105.75136945 -95.53480658 105.75136945 -103.44430542 108.5085144 C-105.18656318 110.24733491 -106.55939313 112.01158963 -108 114 C-109.18206722 115.07138041 -110.3886515 116.11674345 -111.625 117.125 C-117.75072634 122.39118766 -123.33087054 128.25309285 -129 134 C-129.66 133.67 -130.32 133.34 -131 133 C-129.64738766 129.89300927 -128.24756433 128.12460908 -125.625 126 C-121.14536388 122.23677627 -117.08936849 118.12465488 -113.03759766 113.91210938 C-111.72771978 112.57192804 -110.36754439 111.28128389 -109 110 C-108.34 110 -107.68 110 -107 110 C-107 109.34 -107 108.68 -107 108 C-105.515 107.01 -105.515 107.01 -104 106 C-103.505 104.515 -103.505 104.515 -103 103 C-79.24 103 -55.48 103 -31 103 C-31.59136499 80.68079137 -31.59136499 80.68079137 -32.35131836 58.3671875 C-32.91429142 33.37072745 -32.91429142 33.37072745 -25.78675842 25.04052734 C-23.24705796 22.56828413 -20.63257283 20.35322943 -17.75550842 18.28440857 C-15.4276292 16.5812279 -13.48029779 14.58965675 -11.5 12.5 C-10.91089844 11.92121094 -10.32179688 11.34242188 -9.71484375 10.74609375 C-7.13897625 8.12328561 -4.74252434 5.35405453 -2.34765625 2.56640625 C-1.59150381 1.68751602 -0.81982149 0.81982149 0 0 Z " fill="#1D1D18" transform="translate(337,270)"/>
<path d="M0 0 C0.68359375 1.78808594 0.68359375 1.78808594 1 4 C-0.15234375 5.70410156 -0.15234375 5.70410156 -1.9375 7.390625 C-2.58251465 8.01275879 -3.2275293 8.63489258 -3.89208984 9.27587891 C-4.5877002 9.92733887 -5.28331055 10.57879883 -6 11.25 C-7.38827378 12.61693065 -8.77629803 13.98411477 -10.1640625 15.3515625 C-12.23447974 17.35393316 -14.27416102 19.21983809 -16.5234375 21.0234375 C-19.20881222 23.34622998 -20.75813151 25.38717346 -21.29803276 28.98734093 C-21.47804474 31.48256172 -21.57525086 33.96870929 -21.64428711 36.46948242 C-21.6960216 37.86425828 -21.6960216 37.86425828 -21.74880123 39.28721142 C-22.09166071 49.14307888 -22.2238997 59.00243223 -22.31640625 68.86328125 C-22.33706215 70.76141216 -22.35806024 72.65953938 -22.37937927 74.55766296 C-22.43371115 79.47450704 -22.48349951 84.39138619 -22.53222656 89.30828857 C-22.58310493 94.35724892 -22.63843915 99.40616041 -22.69335938 104.45507812 C-22.79984795 114.30334337 -22.90151988 124.15165163 -23 134 C-23.33 134 -23.66 134 -24 134 C-24.9369981 110.15669694 -25.12243705 86.3602516 -25.0625 62.5 C-25.041875 50.785 -25.02125 39.07 -25 27 C-59.65 27 -94.3 27 -130 27 C-129.67 25.68 -129.34 24.36 -129 23 C-129 23.66 -129 24.32 -129 25 C-93.69 25 -58.38 25 -22 25 C-21.34 23.68 -20.68 22.36 -20 21 C-18.69067383 19.47949219 -18.69067383 19.47949219 -17.20703125 18.046875 C-16.66199951 17.51344482 -16.11696777 16.98001465 -15.55541992 16.43041992 C-14.98025635 15.87588135 -14.40509277 15.32134277 -13.8125 14.75 C-8.97930863 10.01289859 -4.32893141 5.21045927 0 0 Z " fill="#262A29" transform="translate(439,620)"/>
<path d="M0 0 C12.87 0 25.74 0 39 0 C39 0.33 39 0.66 39 1 C26.46 1 13.92 1 1 1 C1 11.89 1 22.78 1 34 C14.2 33.67 27.4 33.34 41 33 C41.33 44.55 41.66 56.1 42 68 C51.57 68.33 61.14 68.66 71 69 C70.67 68.34 70.34 67.68 70 67 C69.91341431 64.44637396 69.88437484 61.9204558 69.90234375 59.3671875 C69.9037587 58.61535187 69.90517365 57.86351624 69.90663147 57.08889771 C69.91223535 54.6842249 69.92478843 52.27964473 69.9375 49.875 C69.9425145 48.24609509 69.9470775 46.61718873 69.95117188 44.98828125 C69.96220603 40.99215173 69.97947321 36.99609158 70 33 C75.21442276 32.9505814 80.42870934 32.91427169 85.64331055 32.89013672 C87.41742324 32.88007589 89.19151935 32.86642578 90.96557617 32.84912109 C93.51485284 32.82487622 96.06391037 32.81351782 98.61328125 32.8046875 C99.40712723 32.79436493 100.20097321 32.78404236 101.01887512 32.77340698 C104.88223043 32.7726189 106.70839446 32.80559631 110 35 C97.46 35 84.92 35 72 35 C72 46.55 72 58.1 72 70 C61.11 70 50.22 70 39 70 C39 58.45 39 46.9 39 35 C26.13 35 13.26 35 0 35 C0 23.45 0 11.9 0 0 Z " fill="#141514" transform="translate(376,516)"/>
<path d="M0 0 C0.33 0 0.66 0 1 0 C2.82794686 16.97637773 1.45304304 28.54566186 -9.6796875 42.37890625 C-19.60482806 53.5906391 -32.37175829 61.28534493 -47.52734375 62.41796875 C-61.75077684 63.0442395 -73.56388581 60.16627471 -85.2421875 51.6484375 C-87 50 -87 50 -88 47 C-85.8046336 48.06705018 -83.67295049 49.18755714 -81.5546875 50.40234375 C-67.94654452 58.19826239 -54.70338546 60.02280736 -39.203125 57.34375 C-24.87545444 53.36765004 -13.53526141 44.32892641 -6.25 31.4609375 C-3.26008618 25.57454466 -1.03497405 19.51665356 -0.68359375 12.890625 C-0.64169922 12.13652344 -0.59980469 11.38242187 -0.55664062 10.60546875 C-0.51732422 9.82816406 -0.47800781 9.05085937 -0.4375 8.25 C-0.37272461 7.06083984 -0.37272461 7.06083984 -0.30664062 5.84765625 C-0.20097009 3.89862185 -0.10002034 1.94933252 0 0 Z " fill="#182B2F" transform="translate(641,525)"/>
<path d="M0 0 C9.09230801 -0.04628063 18.18457566 -0.08184737 27.27697563 -0.10362434 C31.4986575 -0.11407464 35.72025895 -0.12825645 39.94189453 -0.15087891 C44.01377277 -0.17256303 48.08557353 -0.18455923 52.15750504 -0.18975449 C53.71329087 -0.19345824 55.26907232 -0.20069046 56.82482529 -0.21146011 C58.99903374 -0.22591638 61.17291942 -0.22798044 63.34716797 -0.22705078 C64.58626923 -0.231492 65.82537048 -0.23593323 67.10202026 -0.24050903 C70 0 70 0 72 2 C48.9 2 25.8 2 2 2 C2.19781851 24.81218588 2.19781851 24.81218588 2.45043945 47.6237793 C2.47302246 52.04455566 2.47302246 52.04455566 2.47721863 54.11677551 C2.48487648 55.55830102 2.50242109 56.99979528 2.52787781 58.44111633 C2.56459475 60.63017031 2.56952692 62.81727508 2.56762695 65.0065918 C2.57873001 66.23903122 2.58983307 67.47147064 2.60127258 68.74125671 C1.82946878 72.9242355 0.23518422 74.33098186 -3 77 C-4.485 77.99 -4.485 77.99 -6 79 C-5.64726407 75.8253766 -5.45494451 74.3937187 -2.98724365 72.25811768 C-0.26705963 69.16715517 -0.48345458 67.20018594 -0.45410156 63.12011719 C-0.44376389 62.43678314 -0.43342621 61.7534491 -0.42277527 61.04940796 C-0.39335644 58.79832285 -0.3918484 56.5481372 -0.390625 54.296875 C-0.37564259 52.73315721 -0.35891531 51.16945524 -0.34051514 49.60577393 C-0.29683557 45.4958422 -0.27684139 41.38612393 -0.26177979 37.27600098 C-0.24221073 33.07970555 -0.20024055 28.88364073 -0.16015625 24.6875 C-0.08484768 16.45839366 -0.03456037 8.22937787 0 0 Z " fill="#191919" transform="translate(720,648)"/>
<path d="M0 0 C0.33 0.66 0.66 1.32 1 2 C2.0041394 1.99214478 2.0041394 1.99214478 3.02856445 1.98413086 C6.12319971 1.96307529 9.21781981 1.9502503 12.3125 1.9375 C13.36501953 1.92912109 14.41753906 1.92074219 15.50195312 1.91210938 C22.39311686 1.89090579 29.15030513 2.24328318 36 3 C36 3.33 36 3.66 36 4 C23.79 4 11.58 4 -1 4 C-0.98952637 7.23087402 -0.97905273 10.46174805 -0.96826172 13.79052734 C-0.93518054 24.44353108 -0.91305379 35.09653705 -0.89637566 45.74957848 C-0.88592088 52.21100955 -0.87173085 58.67238818 -0.84912109 65.13378906 C-0.82745303 71.36478824 -0.81544415 77.59573685 -0.81024551 83.82677078 C-0.80653888 86.20871401 -0.79930118 88.59065434 -0.78853989 90.97257614 C-0.77410522 94.29867369 -0.77201869 97.62455997 -0.77294922 100.95068359 C-0.76575867 101.94402206 -0.75856812 102.93736053 -0.75115967 103.96080017 C-0.753909 104.86386398 -0.75665833 105.7669278 -0.75949097 106.69735718 C-0.75764738 107.48456839 -0.75580379 108.27177959 -0.75390434 109.08284569 C-1 111 -1 111 -3 113 C-3.07004986 98.70962974 -3.122769 84.41928606 -3.15543652 70.12877941 C-3.17111285 63.49358872 -3.19238718 56.85851312 -3.22631836 50.22338867 C-3.25884137 43.82379839 -3.27683818 37.42431901 -3.28463173 31.02465248 C-3.29018792 28.57933111 -3.30103734 26.13401602 -3.31719017 23.68874168 C-3.33887029 20.27177032 -3.34197083 16.85526115 -3.34057617 13.43823242 C-3.351362 12.42043701 -3.36214783 11.4026416 -3.3732605 10.35400391 C-3.36913651 9.42432297 -3.36501251 8.49464203 -3.36076355 7.53678894 C-3.36352893 6.72837649 -3.36629431 5.91996405 -3.36914349 5.08705425 C-2.91465079 2.51745479 -1.98182558 1.63172316 0 0 Z " fill="#171719" transform="translate(578,643)"/>
<path d="M0 0 C0 10.89 0 21.78 0 33 C-19.8 32.505 -19.8 32.505 -40 32 C-39.505 49.82 -39.505 49.82 -39 68 C-48.57 68 -58.14 68 -68 68 C-68.33 67.34 -68.66 66.68 -69 66 C-59.76 66 -50.52 66 -41 66 C-41 54.45 -41 42.9 -41 31 C-28.13 31 -15.26 31 -2 31 C-2 21.43 -2 11.86 -2 2 C-14.87 2 -27.74 2 -41 2 C-41 1.67 -41 1.34 -41 1 C-35.48243025 0.85725841 -29.96485203 0.71485012 -24.44726562 0.57275391 C-22.56933356 0.52434355 -20.69140386 0.47584129 -18.81347656 0.42724609 C-16.11784468 0.35750694 -13.42220453 0.28809573 -10.7265625 0.21875 C-9.88380768 0.19687622 -9.04105286 0.17500244 -8.17276001 0.15246582 C-2.22774341 0 -2.22774341 0 0 0 Z " fill="#492E4A" transform="translate(486,517)"/>
<path d="M0 0 C0 4.6449287 -2.22170011 7.15013325 -5.29663086 10.5078125 C-6.61739624 11.80332031 -6.61739624 11.80332031 -7.96484375 13.125 C-8.4394252 13.59437988 -8.91400665 14.06375977 -9.40296936 14.54736328 C-10.90975608 16.0364617 -12.4230871 17.51866132 -13.9375 19 C-15.44746258 20.48218372 -16.95587008 21.96586824 -18.46131897 23.45263672 C-19.82890102 24.80250836 -21.20130454 26.14749014 -22.57397461 27.4921875 C-25.05054238 29.94774868 -25.05054238 29.94774868 -27.06860352 32.7578125 C-29.26584759 35.30862651 -29.78266668 35.4967396 -33 36 C-35.29251781 36.06010943 -37.58687749 36.05884551 -39.87988281 36.02172852 C-40.90488388 36.0073172 -40.90488388 36.0073172 -41.95059204 35.99261475 C-44.20154447 35.95972381 -46.45229675 35.91935417 -48.703125 35.87890625 C-50.26681825 35.85459543 -51.83051884 35.83075236 -53.39422607 35.80735779 C-57.50423558 35.7446125 -61.61411474 35.67551894 -65.72399902 35.60510254 C-69.92010578 35.53433265 -74.11630474 35.46956752 -78.3125 35.40429688 C-86.54176879 35.27540775 -94.77090957 35.13981186 -103 35 C-103 34.67 -103 34.34 -103 34 C-102.15713943 34.03410477 -101.31427887 34.06820953 -100.44587708 34.10334778 C-92.4027409 34.40934051 -84.36488873 34.60901001 -76.31630421 34.69690418 C-72.17972743 34.74562811 -68.05182203 34.83171067 -63.91870117 35.01147461 C-42.36501409 36.36833254 -42.36501409 36.36833254 -23.75601864 27.13912106 C-19.75871859 23.28009402 -16.27071105 19.02932532 -12.94369507 14.5899353 C-9.04108294 9.38978169 -4.69081918 4.50318641 0 0 Z " fill="#313224" transform="translate(823,613)"/>
<path d="M0 0 C1.25035538 0.05902559 1.25035538 0.05902559 2.52597046 0.11924362 C13.04309399 0.64125123 23.52310494 1.44611415 34 2.5 C34 2.83 34 3.16 34 3.5 C33.17712494 3.44590973 32.35424988 3.39181946 31.50643921 3.33609009 C21.13409016 2.69184979 10.76607651 2.29648092 0.375 2.125 C-0.85184824 2.10473692 -0.85184824 2.10473692 -2.10348129 2.08406448 C-28.16093597 1.41212037 -28.16093597 1.41212037 -50.55944824 13.15679932 C-57.01447684 19.55173056 -62.1999179 26.82429268 -67 34.5 C-67.66 35.16 -68.32 35.82 -69 36.5 C-69.495 35.015 -69.495 35.015 -70 33.5 C-52.0611038 3.98329334 -32.78328474 -1.55525666 0 0 Z " fill="#3B283C" transform="translate(648,608.5)"/>
<path d="M0 0 C1.06911118 0.0137542 1.06911118 0.0137542 2.15982056 0.02778625 C4.50341053 0.06271296 6.84527263 0.12638766 9.18823242 0.19042969 C10.81773263 0.22034388 12.44726684 0.2484557 14.076828 0.27484131 C18.3565782 0.34896936 22.63542824 0.4475236 26.91455078 0.5512085 C31.28479453 0.65276421 35.65544728 0.73116304 40.02612305 0.81152344 C48.59505143 0.97248216 57.16316737 1.15925328 65.73120117 1.36230469 C65.73120117 1.69230469 65.73120117 2.02230469 65.73120117 2.36230469 C64.84472397 2.35928848 63.95824677 2.35627228 63.04490662 2.35316467 C54.67328117 2.33088037 46.30250939 2.3421687 37.93098354 2.39077091 C33.62741076 2.41458251 29.32461106 2.42560349 25.02099609 2.40698242 C20.86429474 2.38947447 16.70897932 2.40610204 12.55244637 2.44598198 C10.97012787 2.45524596 9.3876887 2.45239777 7.80541801 2.43699837 C-0.8036054 2.11367414 -0.8036054 2.11367414 -8.71310425 4.87081909 C-10.455362 6.6096396 -11.82819196 8.37389431 -13.26879883 10.36230469 C-14.45086605 11.43368509 -15.65745032 12.47904814 -16.89379883 13.48730469 C-23.01952517 18.75349235 -28.59966937 24.61539754 -34.26879883 30.36230469 C-34.92879883 30.03230469 -35.58879883 29.70230469 -36.26879883 29.36230469 C-34.91618648 26.25531395 -33.51636316 24.48691377 -30.89379883 22.36230469 C-26.41416271 18.59908096 -22.35816732 14.48695956 -18.30639648 10.27441406 C-16.99651861 8.93423272 -15.63634321 7.64358858 -14.26879883 6.36230469 C-13.60879883 6.36230469 -12.94879883 6.36230469 -12.26879883 6.36230469 C-12.26879883 5.70230469 -12.26879883 5.04230469 -12.26879883 4.36230469 C-8.32213288 0.3063354 -5.55206535 -0.11506871 0 0 Z " fill="#533153" transform="translate(242.268798828125,373.6376953125)"/>
<path d="M0 0 C0.66 0.33 1.32 0.66 2 1 C0.54811406 4.35043397 -1.2819659 6.50486196 -3.88671875 9.046875 C-4.66080078 9.81 -5.43488281 10.573125 -6.23242188 11.359375 C-7.04259766 12.14828125 -7.85277344 12.9371875 -8.6875 13.75 C-13.81417456 18.76386265 -18.81646173 23.76539107 -23.40551758 29.28222656 C-25.11978778 31.1290502 -26.94625352 32.54754686 -29 34 C-29 29.6852962 -26.397137 27.8286858 -23.5625 24.875 C-23.01698486 24.29532471 -22.47146973 23.71564941 -21.90942383 23.1184082 C-18.03489753 19.02147536 -14.05929521 15.03201951 -10.04296875 11.07421875 C-7.34093874 8.3308575 -4.8177011 5.45398462 -2.3125 2.53125 C-1.56874537 1.66353626 -0.8081145 0.8081145 0 0 Z " fill="#282028" transform="translate(337,270)"/>
<path d="M0 0 C0.33 0 0.66 0 1 0 C1 9.57 1 19.14 1 29 C13.54 29 26.08 29 39 29 C37 31 37 31 33.28466797 31.22705078 C31.68713948 31.22673351 30.08958973 31.21539982 28.4921875 31.1953125 C27.23125778 31.19106766 27.23125778 31.19106766 25.94485474 31.18673706 C23.25475954 31.1755243 20.5649949 31.15041803 17.875 31.125 C16.05339022 31.1149716 14.23177523 31.10584551 12.41015625 31.09765625 C7.93987375 31.07728122 3.47030774 31.03813533 -1 31 C-0.67 20.77 -0.34 10.54 0 0 Z " fill="#412B42" transform="translate(378,519)"/>
<path d="M0 0 C0.66 0.66 1.32 1.32 2 2 C0.68 3.32 -0.64 4.64 -2 6 C9.22 6.33 20.44 6.66 32 7 C32 7.66 32 8.32 32 9 C19.79 9 7.58 9 -5 9 C-5.33 9.66 -5.66 10.32 -6 11 C-6 10.34 -6 9.68 -6 9 C-6.66 8.67 -7.32 8.34 -8 8 C-5.36 5.36 -2.72 2.72 0 0 Z " fill="#281A16" transform="translate(205,402)"/>
<path d="M0 0 C0.33 0 0.66 0 1 0 C1.33 11.88 1.66 23.76 2 36 C-7.57 36 -17.14 36 -27 36 C-27.33 35.34 -27.66 34.68 -28 34 C-18.76 34 -9.52 34 0 34 C0 22.78 0 11.56 0 0 Z " fill="#3B283C" transform="translate(445,549)"/>
<path d="M0 0 C0.68798828 1.78369141 0.68798828 1.78369141 1 4 C-0.18408203 5.73583984 -0.18408203 5.73583984 -2.0078125 7.4609375 C-2.99394531 8.41613281 -2.99394531 8.41613281 -4 9.390625 C-4.70125 10.04546875 -5.4025 10.7003125 -6.125 11.375 C-7.48407758 12.67206643 -8.84088945 13.97151147 -10.1953125 15.2734375 C-10.84532227 15.89702148 -11.49533203 16.52060547 -12.16503906 17.16308594 C-14.63861022 19.63928996 -16.82177389 22.26238508 -19 25 C-19.99 24.34 -20.98 23.68 -22 23 C-21.58226318 22.5875 -21.16452637 22.175 -20.73413086 21.75 C-10.02244898 11.19838025 -10.02244898 11.19838025 0 0 Z " fill="#23252B" transform="translate(439,620)"/>
<path d="M0 0 C0.33 0 0.66 0 1 0 C2.41892939 13.17777992 3.02661525 24.52830085 -5.05078125 35.8828125 C-5.69402344 36.58148437 -6.33726562 37.28015625 -7 38 C-7.66 38 -8.32 38 -9 38 C-7.60411916 34.27765109 -5.90074316 30.83768962 -4 27.35546875 C-1.32097612 21.04511173 -0.65648517 14.76737261 -0.375 8 C-0.31699219 6.83791016 -0.31699219 6.83791016 -0.2578125 5.65234375 C-0.16478643 3.76856585 -0.08136825 1.88431744 0 0 Z " fill="#192629" transform="translate(641,525)"/>
<path d="M0 0 C8.44494446 10.23556305 7.47358078 23.54219436 7 36 C4.49736722 32.12195333 4.48488398 27.90586737 4.125 23.4375 C3.51723082 16.84615377 2.41180937 11.17366143 -0.29296875 5.06640625 C-1 3 -1 3 0 0 Z " fill="#181A1A" transform="translate(637,505)"/>
<path d="M0 0 C0.78125 1.671875 0.78125 1.671875 1 4 C-0.84375 6.515625 -0.84375 6.515625 -3.5 9.25 C-4.43192053 10.22176433 -5.36290489 11.19442728 -6.29296875 12.16796875 C-7.63294922 13.56982422 -7.63294922 13.56982422 -9 15 C-10.27954115 16.51351439 -11.5517063 18.03333336 -12.8125 19.5625 C-15.27052224 22.41077696 -17.23419496 24.08707757 -21 25 C-20.195625 24.071875 -19.39125 23.14375 -18.5625 22.1875 C-15.82552899 18.99760235 -13.15568811 15.75782382 -10.5 12.5 C-7.05910282 8.27893324 -3.56654231 4.11524113 0 0 Z " fill="#192426" transform="translate(713,724)"/>
<path d="M0 0 C3.43742918 -0.05802698 6.87473253 -0.09360486 10.3125 -0.125 C11.28896484 -0.14175781 12.26542969 -0.15851563 13.27148438 -0.17578125 C14.20927734 -0.18222656 15.14707031 -0.18867188 16.11328125 -0.1953125 C16.97735596 -0.20578613 17.84143066 -0.21625977 18.73168945 -0.22705078 C21 0 21 0 24 2 C23 3 23 3 21.09814453 3.0534668 C18.43980941 2.9410575 15.78233737 2.82165327 13.125 2.6875 C12.20074219 2.65205078 11.27648437 2.61660156 10.32421875 2.58007812 C9.43605469 2.53689453 8.54789063 2.49371094 7.6328125 2.44921875 C6.40908936 2.39254028 6.40908936 2.39254028 5.16064453 2.3347168 C3 2 3 2 0 0 Z " fill="#181818" transform="translate(578,476)"/>
<path d="M0 0 C0.33 0.66 0.66 1.32 1 2 C-1.9248633 2.84191782 -4.50741656 3.11819313 -7.546875 3.09765625 C-8.39121094 3.09443359 -9.23554687 3.09121094 -10.10546875 3.08789062 C-10.97816406 3.07951172 -11.85085938 3.07113281 -12.75 3.0625 C-14.08224609 3.05573242 -14.08224609 3.05573242 -15.44140625 3.04882812 C-17.62767329 3.037074 -19.81380179 3.02064249 -22 3 C-18.68446313 0.78964209 -17.15000285 0.64225908 -13.25 0.375 C-12.1878125 0.30152344 -11.125625 0.22804688 -10.03125 0.15234375 C-6.67429674 -0.01636911 -3.35958049 -0.0763541 0 0 Z " fill="#171616" transform="translate(601,584)"/>
<path d="M0 0 C0 4.85089963 -2.40896448 7.38147446 -5.6875 10.8125 C-6.450625 11.534375 -7.21375 12.25625 -8 13 C-8.99 12.67 -9.98 12.34 -11 12 C-3.70159453 3.55353075 -3.70159453 3.55353075 0 0 Z " fill="#183236" transform="translate(823,613)"/>
<path d="M0 0 C2.20756126 0.48415327 4.02413293 1.22748542 5.94140625 2.42578125 C5.94140625 3.41578125 5.94140625 4.40578125 5.94140625 5.42578125 C5.36132812 5.22082031 4.78125 5.01585937 4.18359375 4.8046875 C-0.22079215 3.28568312 -4.41537152 2.02106615 -9.05859375 1.42578125 C-5.57961952 -0.8935349 -4.02414877 -0.6151093 0 0 Z " fill="#173034" transform="translate(607.05859375,478.57421875)"/>
<path d="M0 0 C0.81726563 0.15339844 1.63453125 0.30679688 2.4765625 0.46484375 C6.44624772 1.0677782 10.36946033 1.34157964 14.375 1.5625 C15.11105469 1.60568359 15.84710937 1.64886719 16.60546875 1.69335938 C18.40348068 1.79843799 20.20171958 1.89962093 22 2 C22 2.33 22 2.66 22 3 C19.06281233 3.19461488 16.12550068 3.38097593 13.1875 3.5625 C12.35412109 3.61857422 11.52074219 3.67464844 10.66210938 3.73242188 C9.85966797 3.78076172 9.05722656 3.82910156 8.23046875 3.87890625 C7.49207764 3.9260376 6.75368652 3.97316895 5.99291992 4.02172852 C4 4 4 4 1 3 C0.67 2.01 0.34 1.02 0 0 Z " fill="#164148" transform="translate(572,582)"/>
<path d="M0 0 C0.33 0 0.66 0 1 0 C1.25427918 3.1234924 1.47412319 6.24846821 1.6875 9.375 C1.76033203 10.26445313 1.83316406 11.15390625 1.90820312 12.0703125 C1.96298828 12.92109375 2.01777344 13.771875 2.07421875 14.6484375 C2.13182373 15.43395996 2.18942871 16.21948242 2.2487793 17.02880859 C2.16668213 17.67930176 2.08458496 18.32979492 2 19 C1.01 19.66 0.02 20.32 -1 21 C-0.67 14.07 -0.34 7.14 0 0 Z " fill="#16454D" transform="translate(641,525)"/>
<path d="M0 0 C0.66 0.66 1.32 1.32 2 2 C1.360625 2.598125 0.72125 3.19625 0.0625 3.8125 C-2.20310389 5.90810337 -2.20310389 5.90810337 -3 9 C-3.66 9 -4.32 9 -5 9 C-5.33 9.66 -5.66 10.32 -6 11 C-6 10.34 -6 9.68 -6 9 C-6.66 8.67 -7.32 8.34 -8 8 C-5.36 5.36 -2.72 2.72 0 0 Z " fill="#1D1C1D" transform="translate(205,402)"/>
<path d="M0 0 C0.66 0.33 1.32 0.66 2 1 C0.02 3.31 -1.96 5.62 -4 8 C-5.32 7.67 -6.64 7.34 -8 7 C-5.42215154 4.35247996 -3.08351902 2.05567935 0 0 Z " fill="#192527" transform="translate(424,748)"/>
<path d="M0 0 C0.66 0.33 1.32 0.66 2 1 C-0.31537955 4.72114571 -2.28579473 7.61229661 -6 10 C-6.66 9.67 -7.32 9.34 -8 9 C-5.36 6.03 -2.72 3.06 0 0 Z " fill="#193034" transform="translate(700,739)"/>
<path d="M0 0 C0.33 1.32 0.66 2.64 1 4 C-0.65 5.32 -2.3 6.64 -4 8 C-4.66 7.34 -5.32 6.68 -6 6 C-4.02 4.02 -2.04 2.04 0 0 Z " fill="#303546" transform="translate(439,620)"/>
<path d="M0 0 C0.66 0.66 1.32 1.32 2 2 C-0.31 4.31 -2.62 6.62 -5 9 C-5.33 8.01 -5.66 7.02 -6 6 C-4.02 4.02 -2.04 2.04 0 0 Z " fill="#22272C" transform="translate(446,613)"/>
<path d="M0 0 C1.32 0.33 2.64 0.66 4 1 C1.69 2.65 -0.62 4.3 -3 6 C-3.66 5.67 -4.32 5.34 -5 5 C-2.75 2.4375 -2.75 2.4375 0 0 Z " fill="#192426" transform="translate(618,575)"/>
<path d="M0 0 C2 2 2 2 2.1875 5 C2 8 2 8 1 10 C0.34 10 -0.32 10 -1 10 C-0.67 6.7 -0.34 3.4 0 0 Z " fill="#171A1B" transform="translate(534,516)"/>
<path d="M0 0 C0.66 0.33 1.32 0.66 2 1 C0.02 2.98 -1.96 4.96 -4 7 C-4.99 6.67 -5.98 6.34 -7 6 C-2.25 1.125 -2.25 1.125 0 0 Z " fill="#1A2021" transform="translate(694,748)"/>
<path d="M0 0 C0.66 0.99 1.32 1.98 2 3 C0.35 4.32 -1.3 5.64 -3 7 C-3.66 6.34 -4.32 5.68 -5 5 C-3.35 3.35 -1.7 1.7 0 0 Z " fill="#39364B" transform="translate(422,638)"/>
<path d="M0 0 C0.33 0.99 0.66 1.98 1 3 C-0.32 4.32 -1.64 5.64 -3 7 C-3.99 6.67 -4.98 6.34 -6 6 C-4.02 4.02 -2.04 2.04 0 0 Z " fill="#1A292C" transform="translate(448,719)"/>
<path d="M0 0 C0.6875 1.8125 0.6875 1.8125 1 4 C-0.4375 5.75 -0.4375 5.75 -2 7 C-2.99 6.67 -3.98 6.34 -5 6 C-3.35 4.02 -1.7 2.04 0 0 Z " fill="#193135" transform="translate(713,724)"/>
</svg>
