<svg width="450" height="508" viewBox="0 0 450 508" fill="none" xmlns="http://www.w3.org/2000/svg">
<path d="M56.3369 264.32C53.5706 257.819 52.5194 241.664 70.445 229.049C92.852 213.281 162.148 190.459 200.737 192.119C231.609 193.447 268.097 204.844 282.481 210.377C305.289 216.597 339.404 223.293 340.669 245.647C340.683 245.884 340.693 246.13 340.701 246.386L352.047 514.366C238.979 551.387 156.577 554.377 46.0469 514.366L56.3369 264.32Z" fill="url(#paint0_linear_116_199)"/>
<path d="M136.006 294.196C117.408 290.127 68.3702 272.203 56.3369 247.722C53.5706 241.221 52.5194 225.066 70.445 212.452C92.852 196.684 162.148 173.862 200.737 175.521C231.609 176.849 268.097 188.246 282.481 193.779C312.911 202.078 364.972 227.472 329.785 262.66C285.801 306.644 171.691 302.002 136.006 294.196Z" fill="url(#paint1_linear_116_199)"/>
<path fill-rule="evenodd" clip-rule="evenodd" d="M119.762 143.697C92.3754 153.656 31.8765 184.03 8.9716 225.856C0.227197 241.824 -1.66634 254.502 1.31684 264.446C8.10128 287.06 40.1086 295.532 74.1179 296.396C123.081 297.641 299.848 271.085 403.584 181.042C447.642 142.799 452.405 118.329 441.11 102.958C425.81 82.137 407.89 76.4548 364.579 78.9656C341.674 80.2935 191.824 122.673 119.762 143.697ZM40.9223 255.317C22.3328 227.433 81.0336 182.84 112.708 164.029L137.604 155.947L287.814 107.182C293.871 105.959 303.508 104.309 314.371 102.958C329.307 101.099 346.562 99.8046 360.014 100.958C380.259 102.693 401.512 110.879 402.979 129.589C403.617 137.723 400.515 147.847 391.965 160.295C363.749 201.374 264.162 249.508 210.22 260.296C156.277 271.085 64.1592 290.172 40.9223 255.317Z" fill="#309FE9"/>
<path d="M403.584 181.042C299.848 271.085 123.081 297.641 74.1179 296.396C40.1086 295.532 8.10128 287.06 1.31684 264.446C2.90021 270.393 7.80971 283.699 14.7808 289.342C23.4946 296.396 73.6137 309.568 134.285 300.961C216.186 289.342 311.242 255.088 362.919 221.292C415.774 186.725 435.592 162.243 443.833 144.112C455.452 118.551 446.858 106.026 441.11 102.958C452.405 118.329 447.642 142.799 403.584 181.042Z" fill="url(#paint2_linear_116_199)"/>
<path d="M112.708 164.029C81.0336 182.84 22.3328 227.433 40.9223 255.317C40.9223 255.317 39.6774 251.168 41.7522 244.943C43.8269 238.719 58.3499 214.652 74.1179 201.789C86.7322 191.499 121.698 166.94 137.604 155.947L112.708 164.029Z" fill="#352D6A"/>
<path d="M360.014 100.958C346.562 99.8046 329.307 101.099 314.371 102.958V112.161C330 110.363 364.33 107.846 376.612 112.161C388.895 116.477 399.308 125.578 402.979 129.589C401.512 110.879 380.259 102.693 360.014 100.958Z" fill="#352D6A"/>
<path d="M298.25 43.9841C298.582 42.9882 271.002 21.1622 257.17 10.3736C247.626 2.92922 226.547 0 210.282 0C189.949 0 128.299 7.63284 85.7981 88.3831C56.7517 143.571 79.159 195.024 99.4913 216.186C119.824 237.348 153.434 262.245 201.568 248.137C249.701 234.029 293.27 200.833 311.113 141.911C328.956 82.9889 297.835 45.2289 298.25 43.9841Z" fill="url(#paint3_linear_116_199)"/>
<path d="M197.418 15.353C142.313 23.9838 110.556 66.8061 101.566 87.1383C57.9966 178.426 125.286 260.146 214.846 207.057C295.345 159.339 284.141 79.6693 282.896 71.7854C281.652 63.9015 266.299 4.56442 197.418 15.353Z" fill="#041A3B" stroke="black" stroke-width="1.76206"/>
<path d="M230.713 72.0882C233.549 75.7378 235.837 79.9036 237.5 84.4716C238.87 88.2334 239.798 92.2208 240.274 96.3503C240.683 99.8948 240.759 103.545 240.496 107.247C240.435 107.222 197.029 89.6226 176.46 116.332C155.892 143.04 138.991 133.101 138.967 133.087C137.484 126.029 137.404 118.475 138.727 110.885C142.047 112.552 145.946 113.569 149.505 114.186C153.912 114.951 158.033 115.141 160.37 115.096C163.094 115.044 168.659 114.76 175.082 110.877C181.558 106.963 188.533 99.6241 194.403 86.1709C197 80.2195 200.111 76.4564 203.303 74.064C206.516 71.6568 210.029 70.474 213.598 70.0486C220.266 69.2535 226.491 71.0984 230.713 72.0882Z" fill="url(#paint4_linear_116_199)"/>
<path d="M207.371 57.25C212.988 58.5114 218.18 60.8845 222.719 64.2513C219.966 63.9157 216.961 63.7932 213.909 64.1572C209.627 64.6677 205.066 66.1307 200.76 69.3573C196.434 72.5986 192.583 77.4582 189.557 84.3955C184.179 96.7203 178.119 102.758 173.088 105.8C168.004 108.873 163.589 109.124 161.178 109.17C159.134 109.21 155.313 109.039 151.208 108.327C147.182 107.629 143.101 106.445 140.147 104.585C141.489 99.7435 143.385 95.0097 145.786 90.504C147.328 91.1114 148.95 91.503 150.445 91.7559C153.206 92.2229 155.832 92.2685 157.365 92.1774C158.714 92.0973 163.754 92.3143 169.509 89.9632C175.431 87.5438 182.061 82.4712 187.018 72.1725C191.395 63.0785 195.361 59.0128 198.376 57.2104C199.054 56.8046 199.71 56.499 200.342 56.2731C202.725 56.4096 205.075 56.7343 207.371 57.25Z" fill="url(#paint5_linear_116_199)"/>
<path d="M190.924 56.6984C188.055 59.8188 185.158 64.1786 182.286 70.147C178.145 78.7495 172.879 82.612 168.382 84.4491C163.718 86.3543 159.816 86.1497 157.975 86.2591C156.785 86.3298 154.52 86.2982 152.129 85.8937C151.024 85.7068 149.952 85.4482 148.974 85.1139C149.31 84.5987 149.653 84.0881 150.002 83.5828C154.108 77.6391 159.08 72.3927 164.672 68.1168C171.162 63.1548 178.335 59.6156 185.703 57.7404C187.444 57.2973 189.186 56.9506 190.924 56.6984Z" fill="url(#paint6_linear_116_199)"/>
<path d="M189.368 167.493C196.364 166.206 203.282 163.4 209.699 159.245C211.941 157.877 224.858 148.869 228.994 139.981C218.435 135.452 200.411 131.414 196.465 130.397C192.413 129.353 187.061 129.612 184.778 130.278C164.395 136.216 166.284 150.688 151.954 157.078C156.775 161.654 162.58 164.938 169.013 166.728C175.446 168.519 182.373 168.779 189.368 167.493Z" fill="url(#paint7_linear_116_199)"/>
<defs>
<linearGradient id="paint0_linear_116_199" x1="198.162" y1="192.034" x2="239.5" y2="500" gradientUnits="userSpaceOnUse">
<stop stop-color="#1565F6"/>
<stop offset="1" stop-color="#020592" stop-opacity="0"/>
</linearGradient>
<linearGradient id="paint1_linear_116_199" x1="63.4865" y1="219.091" x2="327.391" y2="255.191" gradientUnits="userSpaceOnUse">
<stop stop-color="#4375EE"/>
<stop offset="1" stop-color="#134ADE"/>
</linearGradient>
<linearGradient id="paint2_linear_116_199" x1="224.799" y1="78.4114" x2="224.799" y2="303.783" gradientUnits="userSpaceOnUse">
<stop offset="0.5625" stop-color="#0D64EF"/>
<stop offset="1" stop-color="#1125D8"/>
</linearGradient>
<linearGradient id="paint3_linear_116_199" x1="194.274" y1="0" x2="194.274" y2="252.264" gradientUnits="userSpaceOnUse">
<stop stop-color="#309FE9"/>
<stop offset="1" stop-color="#AAD9F7"/>
</linearGradient>
<linearGradient id="paint4_linear_116_199" x1="219.654" y1="62.1888" x2="158.812" y2="162.322" gradientUnits="userSpaceOnUse">
<stop stop-color="#309FE9"/>
<stop offset="1" stop-color="#1565F6"/>
</linearGradient>
<linearGradient id="paint5_linear_116_199" x1="219.654" y1="62.1888" x2="158.812" y2="162.322" gradientUnits="userSpaceOnUse">
<stop stop-color="#309FE9"/>
<stop offset="1" stop-color="#1565F6"/>
</linearGradient>
<linearGradient id="paint6_linear_116_199" x1="219.654" y1="62.1888" x2="158.812" y2="162.322" gradientUnits="userSpaceOnUse">
<stop stop-color="#309FE9"/>
<stop offset="1" stop-color="#1565F6"/>
</linearGradient>
<linearGradient id="paint7_linear_116_199" x1="219.654" y1="62.1888" x2="158.812" y2="162.322" gradientUnits="userSpaceOnUse">
<stop stop-color="#309FE9"/>
<stop offset="1" stop-color="#1565F6"/>
</linearGradient>
</defs>
</svg>
