<svg width="219" height="43" viewBox="0 0 219 43" fill="none" xmlns="http://www.w3.org/2000/svg">
<path d="M41.208 22.7786C41.3734 24.4242 40.8416 26.4401 40.1816 28.18C39.4999 29.977 38.6974 31.4473 38.4463 31.8499L38.4434 31.8538C37.035 34.2668 35.1493 36.3674 32.9014 38.0266C30.6533 39.6859 28.0902 40.8695 25.3691 41.5042C22.7465 42.1159 20.0305 42.203 17.375 41.7669C19.1272 39.5239 19.1183 37.3886 19.374 35.2161C19.5067 34.0887 19.7092 32.9445 20.2529 31.7415C20.7964 30.5391 21.6855 29.2681 23.2002 27.8977C23.5264 27.6027 24.1557 27.1904 24.9229 26.7971C25.6879 26.405 26.5767 26.0385 27.415 25.8284C29.0703 25.4135 36.3631 23.3767 41.208 22.7786ZM26.9336 1.92801C28.7448 2.50456 30.4726 3.33017 32.0645 4.38699C33.3868 5.26487 34.5995 6.29106 35.6797 7.44168C36.5455 8.36399 37.3251 9.3675 38.0098 10.4388C36.9021 10.6112 32.5968 11.3592 28.1445 13.218C22.9985 15.3665 17.581 19.0266 16.7754 25.054C15.9897 30.9329 13.526 33.872 11.2812 35.347C9.26902 36.6691 7.41263 36.8244 7.04785 36.843C5.05004 35.065 3.42115 32.9151 2.24902 30.5159C3.76882 30.3837 5.33079 29.9929 6.69531 29.5491C8.48284 28.9677 10.0381 28.2649 10.8896 27.8177C11.8817 27.2966 13.8833 26.1708 15.3916 23.7776C16.9139 21.3622 17.8359 17.8172 16.9893 12.638C16.6223 10.393 16.9208 8.72209 17.5371 7.45047C18.1579 6.16958 19.1518 5.18933 20.3398 4.41824C22.5456 2.98672 25.1615 2.40485 26.9336 1.92801ZM15.1807 1.71609C17.2299 1.14404 19.3505 0.894244 21.4668 0.972931C20.6179 1.32838 19.7586 1.75712 18.9521 2.28055C17.4833 3.23391 16.1168 4.53661 15.2432 6.33914C14.3651 8.1511 14.036 10.3658 14.4746 13.0491C15.2392 17.7264 14.37 20.6189 13.2354 22.4192C12.0868 24.2414 10.5652 25.11 9.70508 25.5618C8.9761 25.9447 7.55315 26.5909 5.90723 27.1263C4.33741 27.6369 2.6602 28.0133 1.22559 28.0169C0.687971 26.4101 0.350885 24.743 0.222656 23.053C0.874115 22.9483 1.50428 22.7817 2.06543 22.597C3.18858 22.2271 4.16789 21.7534 4.7168 21.4388C5.17782 21.1745 7.09894 20.298 8.70215 18.5032C10.3587 16.6487 11.6724 13.8479 11.1914 9.77078C10.775 6.24115 11.3211 4.33047 11.9912 3.27957C12.1355 3.0533 12.2916 2.85778 12.4551 2.68777C13.3373 2.30096 14.2482 1.97641 15.1807 1.71609ZM8.73633 4.80496C8.45923 6.22185 8.41041 7.95275 8.66016 10.0696C9.05025 13.3761 8.00348 15.4606 6.80176 16.8059C5.54711 18.2105 4.1128 18.8481 3.4502 19.2278C3.04155 19.462 2.21881 19.8641 1.26855 20.177C0.906883 20.2961 0.543335 20.3944 0.19043 20.469C0.197423 20.3296 0.204033 20.1901 0.213867 20.0511C0.392641 17.5228 1.038 15.0456 2.12109 12.7464C3.37818 10.078 5.19582 7.71124 7.44922 5.80789C7.8656 5.45619 8.29475 5.12135 8.73633 4.80496Z" fill="#309FE9" stroke="#309FE9" stroke-width="0.35723"/>
<path d="M58.1144 32.1458C56.0938 32.1458 54.3475 31.8215 52.8757 31.1729C51.4288 30.4994 50.2314 29.5764 49.2834 28.4039C48.3355 27.2065 47.637 25.8469 47.188 24.3252C46.7389 22.7785 46.5144 21.1196 46.5144 19.3484C46.5144 17.5273 46.7389 15.831 47.188 14.2594C47.6619 12.6877 48.3604 11.3157 49.2834 10.1432C50.2314 8.97075 51.4288 8.06021 52.8757 7.41161C54.3226 6.73806 56.0314 6.40129 58.0022 6.40129C59.7234 6.40129 61.2077 6.65075 62.4551 7.14967C63.7024 7.62365 64.7127 8.2972 65.486 9.17032C66.2843 10.0185 66.8456 11.0163 67.1699 12.1639C67.4313 13.0688 67.555 14.0143 67.5408 15.0003C67.5348 15.4194 67.209 15.7568 66.7932 15.8099L63.5504 16.2244C63.0131 16.2931 62.5466 15.8664 62.4945 15.3273C62.4258 14.6146 62.2629 13.9842 62.006 13.4361C61.6568 12.6129 61.1329 11.9892 60.4344 11.5652C59.7359 11.1161 58.8753 10.8916 57.8525 10.8916C56.9794 10.8916 56.1936 11.0662 55.4951 11.4155C54.7966 11.7647 54.1979 12.2886 53.6989 12.9871C53.2 13.6606 52.8133 14.5088 52.5389 15.5316C52.2895 16.5544 52.1647 17.7518 52.1647 19.1239C52.1647 20.8951 52.3892 22.4168 52.8383 23.689C53.2873 24.9613 53.9609 25.9467 54.8589 26.6452C55.7819 27.3187 56.9045 27.6555 58.2267 27.6555C59.449 27.6555 60.4219 27.3811 61.1454 26.8323C61.8938 26.2834 62.4301 25.5226 62.7544 24.5497C62.9882 23.8305 63.1182 23.04 63.1446 22.1783C63.1613 21.635 63.6171 21.1912 64.1581 21.2429L67.4849 21.5609C67.9097 21.6015 68.2489 21.9392 68.2616 22.3657C68.2953 23.4977 68.1684 24.5874 67.8809 25.6348C67.5566 26.8822 66.9828 28.0047 66.1596 29.0026C65.3613 29.9755 64.2886 30.7488 62.9415 31.3226C61.6194 31.8714 60.0103 32.1458 58.1144 32.1458Z" fill="white"/>
<path d="M75.4735 37.3845C74.6752 37.3845 73.827 37.3097 72.929 37.16C72.0309 37.0353 71.1453 36.8108 70.2722 36.4865C69.6151 36.2424 69.0005 35.956 68.4282 35.6272C68.0942 35.4353 67.947 35.0372 68.0497 34.666L68.9246 31.503C69.1071 30.8432 69.9494 30.6242 70.5155 31.0092C71.0475 31.3711 71.615 31.6501 72.218 31.8465C73.3156 32.2207 74.326 32.4078 75.249 32.4078C76.5711 32.4078 77.6563 32.1333 78.5045 31.5845C79.3776 31.0357 80.0137 30.2624 80.4129 29.2645C80.8369 28.2667 81.049 27.0693 81.049 25.6723L81.1207 22.1231C81.1224 22.0378 81.0538 21.9677 80.9685 21.9677C80.8877 21.9677 80.821 22.031 80.816 22.1116C80.7071 23.8426 80.3857 25.2665 79.8516 26.3832C79.3277 27.5058 78.6167 28.3415 77.7187 28.8903C76.8206 29.4142 75.7978 29.6761 74.6503 29.6761C73.2034 29.6761 72.006 29.3144 71.058 28.591C70.135 27.8426 69.4365 26.7574 68.9625 25.3355C68.5135 23.8886 68.289 22.1174 68.289 20.0219V12.8628C68.289 12.3734 68.6856 11.9768 69.175 11.9768H72.754C73.2433 11.9768 73.6399 12.3734 73.6399 12.8628V18.6748C73.6399 20.8452 73.8894 22.4417 74.3883 23.4645C74.8873 24.4624 75.6731 24.9613 76.7458 24.9613C77.3195 24.9613 77.8309 24.8241 78.2799 24.5497C78.7539 24.2503 79.1406 23.8013 79.4399 23.2026C79.7393 22.6039 79.9638 21.868 80.1135 20.9948C80.2881 20.0968 80.3754 19.0615 80.3754 17.889V12.8628C80.3754 12.3734 80.7721 11.9768 81.2614 11.9768H84.8404C85.3297 11.9768 85.7264 12.3734 85.7264 12.8628V25.8594C85.7264 27.0817 85.6017 28.2667 85.3522 29.4142C85.1277 30.5368 84.766 31.5721 84.2671 32.52C83.7681 33.4929 83.1195 34.3411 82.3212 35.0645C81.523 35.8129 80.5501 36.3867 79.4025 36.7858C78.28 37.185 76.9703 37.3845 75.4735 37.3845Z" fill="white"/>
<path d="M97.9701 32.1458C96.8226 32.1458 95.8123 31.8964 94.9392 31.3974C94.091 30.8736 93.38 30.1127 92.8063 29.1148C92.2477 28.1433 91.8309 26.9472 91.5561 25.5264C91.5431 25.4592 91.4844 25.4103 91.4159 25.4103C91.3368 25.4103 91.2729 25.475 91.2738 25.5542L91.3361 30.7253C91.3421 31.2187 90.9437 31.6219 90.4502 31.6219H87.4851C86.994 31.6219 86.5967 31.2226 86.5991 30.7315L86.6321 24.1755L86.5964 6.50325C86.5955 6.01324 86.9924 5.61548 87.4824 5.61548H91.1345C91.6238 5.61548 92.0205 6.01215 92.0205 6.50146V11.2284C92.0205 11.9019 91.983 12.6378 91.9082 13.4361C91.8583 14.2344 91.771 15.0701 91.6463 15.9432C91.5534 16.7327 91.4389 17.5547 91.3028 18.409C91.2868 18.5092 91.3641 18.6 91.4655 18.6C91.5477 18.6 91.6172 18.5393 91.6291 18.458C91.8569 16.9004 92.2493 15.6131 92.8063 14.5961C93.38 13.5234 94.1159 12.7376 95.014 12.2387C95.937 11.7148 96.9972 11.4529 98.1947 11.4529C99.6665 11.4529 100.951 11.8271 102.049 12.5755C103.146 13.3239 103.995 14.4465 104.593 15.9432C105.192 17.44 105.491 19.3234 105.491 21.5936C105.491 24.0133 105.155 25.9966 104.481 27.5432C103.833 29.0899 102.934 30.2499 101.787 31.0232C100.639 31.7716 99.3671 32.1458 97.9701 32.1458ZM96.174 27.7678C96.9972 27.7678 97.6957 27.5183 98.2695 27.0194C98.8433 26.4955 99.2798 25.797 99.5792 24.9239C99.8785 24.0508 100.028 23.0779 100.028 22.0052C100.028 20.8826 99.8785 19.8723 99.5792 18.9742C99.3048 18.0761 98.8807 17.3652 98.3069 16.8413C97.7332 16.2925 97.0097 16.0181 96.1366 16.0181C95.6876 16.0181 95.2385 16.1054 94.7895 16.28C94.3654 16.4546 93.9787 16.7166 93.6295 17.0658C93.3052 17.3901 93.0183 17.7893 92.7689 18.2632C92.5194 18.7372 92.3198 19.2736 92.1701 19.8723C92.0454 20.446 91.983 21.0697 91.983 21.7432V22.0052C91.983 22.8533 92.0828 23.6391 92.2824 24.3626C92.5069 25.0611 92.8063 25.6723 93.1805 26.1961C93.5547 26.6951 93.9912 27.0817 94.4901 27.3561C95.014 27.6305 95.5753 27.7678 96.174 27.7678Z" fill="white"/>
<path d="M115.234 32.1458C113.463 32.1458 111.953 31.8839 110.706 31.36C109.484 30.8361 108.486 30.1127 107.713 29.1897C106.939 28.2667 106.378 27.2065 106.029 26.009C105.68 24.8116 105.505 23.5269 105.505 22.1548C105.505 20.7329 105.68 19.3858 106.029 18.1136C106.403 16.8163 106.964 15.6688 107.713 14.671C108.461 13.6731 109.434 12.8873 110.631 12.3135C111.829 11.7398 113.238 11.4529 114.86 11.4529C116.481 11.4529 117.878 11.7398 119.051 12.3135C120.223 12.8624 121.159 13.6357 121.857 14.6335C122.581 15.6314 123.055 16.8039 123.279 18.151C123.489 19.2624 123.531 20.4708 123.406 21.7762C123.364 22.2106 122.995 22.534 122.558 22.5408L109.735 22.7396C109.24 22.7473 108.835 22.3484 108.835 21.8537V20.5896C108.835 20.1077 109.22 19.7142 109.702 19.7038L118.844 19.5058C119.011 19.5022 119.126 19.6723 119.061 19.8261C118.957 20.0699 118.522 19.9691 118.51 19.7045C118.488 19.1934 118.418 18.7254 118.302 18.3006C118.078 17.4774 117.679 16.8538 117.105 16.4297C116.556 15.9806 115.808 15.7561 114.86 15.7561C113.862 15.7561 113.051 16.0181 112.427 16.5419C111.829 17.0409 111.392 17.7518 111.118 18.6748C110.843 19.5979 110.706 20.6705 110.706 21.8929C110.706 24.0133 111.08 25.5725 111.829 26.5703C112.602 27.5682 113.75 28.0671 115.271 28.0671C115.97 28.0671 116.544 27.9798 116.993 27.8052C117.467 27.6056 117.841 27.3437 118.115 27.0194C118.415 26.6701 118.614 26.271 118.714 25.8219C118.757 25.6681 118.791 25.5098 118.816 25.3471C118.896 24.8262 119.323 24.3904 119.849 24.4223L123.017 24.6143C123.465 24.6415 123.828 25.0005 123.804 25.449C123.771 26.0661 123.659 26.6893 123.466 27.3187C123.217 28.1918 122.755 28.9901 122.082 29.7136C121.433 30.437 120.535 31.0232 119.387 31.4723C118.265 31.9213 116.88 32.1458 115.234 32.1458Z" fill="white"/>
<path d="M125.069 31.6219C124.58 31.6219 124.183 31.2253 124.183 30.736V21.2942L124.149 12.8663C124.147 12.3756 124.544 11.9768 125.035 11.9768H127.962C128.456 11.9768 128.855 12.3809 128.848 12.8749L128.75 19.9782C128.749 20.064 128.818 20.1342 128.904 20.1342C128.985 20.1342 129.052 20.0715 129.058 19.991C129.211 17.9378 129.507 16.3017 129.946 15.0826C130.395 13.8103 130.956 12.8998 131.629 12.351C132.328 11.8022 133.114 11.5277 133.987 11.5277C134.411 11.5277 134.848 11.5901 135.297 11.7148C135.6 11.7787 135.903 11.8732 136.207 11.9984C136.525 12.13 136.707 12.4592 136.69 12.8038L136.49 16.7742C136.457 17.4277 135.745 17.8234 135.116 17.6419C135.051 17.6232 134.987 17.6058 134.922 17.5897C134.423 17.44 133.962 17.3652 133.538 17.3652C132.69 17.3652 131.966 17.6271 131.368 18.151C130.769 18.6748 130.307 19.4482 129.983 20.471C129.684 21.4688 129.534 22.6912 129.534 24.1381V30.736C129.534 31.2253 129.137 31.6219 128.648 31.6219H125.069Z" fill="white"/>
<path d="M142.591 31.6219C142.204 31.6219 141.862 31.3715 141.746 31.0031L136.094 13.1299C135.914 12.5588 136.34 11.9768 136.939 11.9768H140.769C141.173 11.9768 141.526 12.2496 141.627 12.6404L145.365 27.0589C145.376 27.1017 145.415 27.1316 145.459 27.1316C145.503 27.1316 145.542 27.1021 145.553 27.0596L149.4 12.6345C149.503 12.2466 149.854 11.9768 150.256 11.9768H153.791C154.39 11.9768 154.817 12.5588 154.636 13.1299L148.985 31.0031C148.868 31.3715 148.527 31.6219 148.14 31.6219H142.591Z" fill="white"/>
<path d="M162.827 32.1458C161.056 32.1458 159.546 31.8839 158.299 31.36C157.077 30.8361 156.079 30.1127 155.305 29.1897C154.532 28.2667 153.971 27.2065 153.622 26.009C153.272 24.8116 153.098 23.5269 153.098 22.1548C153.098 20.7329 153.272 19.3858 153.622 18.1136C153.996 16.8163 154.557 15.6688 155.305 14.671C156.054 13.6731 157.027 12.8873 158.224 12.3135C159.422 11.7398 160.831 11.4529 162.453 11.4529C164.074 11.4529 165.471 11.7398 166.643 12.3135C167.816 12.8624 168.751 13.6357 169.45 14.6335C170.173 15.6314 170.647 16.8039 170.872 18.151C171.082 19.2624 171.124 20.4708 170.999 21.7762C170.957 22.2106 170.588 22.534 170.151 22.5408L157.328 22.7396C156.833 22.7473 156.428 22.3484 156.428 21.8537V20.5896C156.428 20.1077 156.813 19.7142 157.295 19.7038L166.437 19.5058C166.604 19.5022 166.719 19.6723 166.654 19.8261C166.55 20.0699 166.115 19.9691 166.103 19.7045C166.08 19.1934 166.011 18.7254 165.895 18.3006C165.671 17.4774 165.271 16.8538 164.698 16.4297C164.149 15.9806 163.4 15.7561 162.453 15.7561C161.455 15.7561 160.644 16.0181 160.02 16.5419C159.422 17.0409 158.985 17.7518 158.711 18.6748C158.436 19.5979 158.299 20.6705 158.299 21.8929C158.299 24.0133 158.673 25.5725 159.422 26.5703C160.195 27.5682 161.342 28.0671 162.864 28.0671C163.563 28.0671 164.136 27.9798 164.585 27.8052C165.059 27.6056 165.434 27.3437 165.708 27.0194C166.007 26.6701 166.207 26.271 166.307 25.8219C166.349 25.6681 166.383 25.5098 166.409 25.3471C166.489 24.8262 166.916 24.3904 167.442 24.4223L170.61 24.6143C171.058 24.6415 171.421 25.0005 171.397 25.449C171.364 26.0661 171.251 26.6893 171.059 27.3187C170.81 28.1918 170.348 28.9901 169.674 29.7136C169.026 30.437 168.128 31.0232 166.98 31.4723C165.858 31.9213 164.473 32.1458 162.827 32.1458Z" fill="white"/>
<path d="M172.662 31.6219C172.172 31.6219 171.776 31.2253 171.776 30.736V21.2942L171.742 12.8663C171.74 12.3756 172.137 11.9768 172.628 11.9768H175.555C176.049 11.9768 176.448 12.3809 176.441 12.8749L176.343 19.9782C176.342 20.064 176.411 20.1342 176.497 20.1342C176.578 20.1342 176.645 20.0715 176.651 19.9909C176.804 17.9378 177.099 16.3017 177.538 15.0826C177.987 13.8103 178.549 12.8998 179.222 12.351C179.921 11.8022 180.707 11.5277 181.58 11.5277C182.004 11.5277 182.44 11.5901 182.889 11.7148C183.193 11.7787 183.496 11.8732 183.799 11.9984C184.118 12.13 184.3 12.4592 184.283 12.8038L184.083 16.7742C184.05 17.4277 183.337 17.8234 182.709 17.6419C182.644 17.6232 182.58 17.6058 182.515 17.5897C182.016 17.44 181.555 17.3652 181.131 17.3652C180.282 17.3652 179.559 17.6271 178.96 18.151C178.362 18.6748 177.9 19.4482 177.576 20.471C177.276 21.4688 177.127 22.6912 177.127 24.1381V30.736C177.127 31.2253 176.73 31.6219 176.241 31.6219H172.662Z" fill="white"/>
<path d="M192.392 32.1458C191.095 32.1458 189.885 32.0086 188.762 31.7342C187.665 31.4847 186.704 31.0731 185.881 30.4994C185.083 29.9256 184.472 29.1647 184.048 28.2168C183.706 27.4323 183.526 26.5261 183.508 25.4983C183.501 25.0604 183.846 24.7061 184.282 24.6646L187.295 24.3777C187.805 24.329 188.24 24.7258 188.33 25.2308C188.421 25.743 188.578 26.1895 188.8 26.5703C189.149 27.1441 189.636 27.5682 190.259 27.8426C190.908 28.0921 191.681 28.2168 192.579 28.2168C193.527 28.2168 194.313 28.0671 194.937 27.7678C195.56 27.4434 195.872 26.9321 195.872 26.2336C195.872 25.8095 195.735 25.4727 195.46 25.2232C195.211 24.9738 194.787 24.7493 194.188 24.5497C193.59 24.3501 192.779 24.1256 191.756 23.8761C190.559 23.6017 189.461 23.3148 188.463 23.0155C187.465 22.6912 186.605 22.317 185.881 21.8929C185.158 21.4439 184.596 20.8951 184.197 20.2465C183.823 19.5729 183.636 18.7497 183.636 17.7768C183.636 16.4546 183.985 15.332 184.684 14.409C185.407 13.4611 186.393 12.7376 187.64 12.2387C188.912 11.7148 190.371 11.4529 192.018 11.4529C193.515 11.4529 194.899 11.6899 196.171 12.1639C197.469 12.6378 198.491 13.4112 199.24 14.4839C199.881 15.3822 200.184 16.5372 200.147 17.949C200.136 18.3716 199.797 18.7042 199.377 18.7449L196.528 19.0206C195.974 19.0742 195.524 18.604 195.438 18.0542C195.383 17.7039 195.278 17.3869 195.124 17.1032C194.824 16.5544 194.375 16.1428 193.777 15.8684C193.203 15.569 192.517 15.4194 191.719 15.4194C190.771 15.4194 190.022 15.6065 189.473 15.9806C188.95 16.3299 188.688 16.7914 188.688 17.3652C188.688 17.8391 188.85 18.2258 189.174 18.5252C189.523 18.8245 190.022 19.074 190.671 19.2736C191.319 19.4482 192.143 19.6477 193.14 19.8723C193.989 20.0469 194.862 20.2714 195.76 20.5458C196.683 20.7953 197.531 21.1445 198.304 21.5936C199.103 22.0176 199.739 22.6039 200.213 23.3523C200.712 24.0757 200.961 25.0112 200.961 26.1587C200.961 27.3561 200.624 28.4164 199.951 29.3394C199.302 30.2374 198.342 30.9359 197.07 31.4348C195.797 31.9088 194.238 32.1458 192.392 32.1458Z" fill="white"/>
<path d="M210.419 32.1458C208.648 32.1458 207.139 31.8839 205.892 31.36C204.669 30.8361 203.672 30.1127 202.898 29.1897C202.125 28.2667 201.564 27.2065 201.214 26.009C200.865 24.8116 200.69 23.5269 200.69 22.1548C200.69 20.7329 200.865 19.3858 201.214 18.1136C201.588 16.8163 202.15 15.6688 202.898 14.671C203.647 13.6731 204.619 12.8873 205.817 12.3135C207.014 11.7398 208.424 11.4529 210.045 11.4529C211.667 11.4529 213.064 11.7398 214.236 12.3135C215.409 12.8624 216.344 13.6357 217.043 14.6335C217.766 15.6314 218.24 16.8039 218.465 18.151C218.674 19.2624 218.717 20.4708 218.591 21.7762C218.55 22.2106 218.18 22.534 217.744 22.5408L204.92 22.7396C204.426 22.7473 204.021 22.3484 204.021 21.8537V20.5896C204.021 20.1077 204.406 19.7142 204.888 19.7038L214.029 19.5058C214.197 19.5022 214.312 19.6723 214.246 19.8261C214.143 20.0699 213.708 19.9691 213.696 19.7045C213.673 19.1934 213.604 18.7254 213.488 18.3006C213.263 17.4774 212.864 16.8538 212.29 16.4297C211.742 15.9806 210.993 15.7561 210.045 15.7561C209.047 15.7561 208.237 16.0181 207.613 16.5419C207.014 17.0409 206.578 17.7518 206.303 18.6748C206.029 19.5979 205.892 20.6705 205.892 21.8929C205.892 24.0133 206.266 25.5725 207.014 26.5703C207.788 27.5682 208.935 28.0671 210.457 28.0671C211.155 28.0671 211.729 27.9798 212.178 27.8052C212.652 27.6056 213.026 27.3437 213.301 27.0194C213.6 26.6701 213.8 26.271 213.899 25.8219C213.942 25.6681 213.976 25.5098 214.001 25.3471C214.082 24.8262 214.508 24.3904 215.035 24.4223L218.202 24.6143C218.651 24.6415 219.014 25.0005 218.99 25.449C218.957 26.0661 218.844 26.6893 218.652 27.3187C218.402 28.1918 217.941 28.9901 217.267 29.7136C216.619 30.437 215.721 31.0232 214.573 31.4723C213.45 31.9213 212.066 32.1458 210.419 32.1458Z" fill="white"/>
</svg>
