<svg width="266" height="266" viewBox="0 0 266 266" fill="none" xmlns="http://www.w3.org/2000/svg">
<path d="M264.456 141.153C265.521 151.716 262.091 164.661 257.854 175.83C253.479 187.362 248.328 196.792 246.717 199.376L246.699 199.405C237.661 214.891 225.559 228.369 211.133 239.017C196.707 249.664 180.259 257.256 162.798 261.329C145.968 265.255 128.537 265.829 111.496 263.03C122.748 248.633 122.684 234.925 124.325 220.98C125.177 213.745 126.48 206.403 129.97 198.682C133.458 190.966 139.158 182.811 148.878 174.018C150.971 172.124 155.012 169.48 159.937 166.955C164.846 164.438 170.548 162.086 175.928 160.737C186.552 158.074 233.365 144.988 264.456 141.153ZM172.852 7.3623C184.47 11.062 195.552 16.3631 205.764 23.1426C214.249 28.7761 222.028 35.3594 228.96 42.7432C234.512 48.6579 239.521 55.0877 243.913 61.957C236.806 63.0634 209.179 67.8816 180.606 79.8105C147.583 93.5978 112.821 117.089 107.651 155.768C102.609 193.494 86.7998 212.355 72.3945 221.82C59.5103 230.286 47.622 231.316 45.2441 231.439C32.4196 220.03 21.9566 206.235 14.4316 190.838C24.1854 189.989 34.2096 187.465 42.9668 184.616C54.4381 180.885 64.4175 176.372 69.8818 173.502C76.1485 170.211 88.6908 163.158 98.3135 148.289L98.7686 147.575C108.537 132.075 114.455 109.327 109.021 76.0898C106.666 61.6837 108.582 50.9629 112.537 42.8027C116.521 34.5825 122.9 28.2922 130.524 23.3438C144.684 14.1539 161.479 10.4229 172.852 7.3623ZM97.416 6.00098C110.566 2.33015 124.174 0.73458 137.754 1.23926C132.308 3.51989 126.795 6.2698 121.621 9.62793C112.195 15.7458 103.427 24.1038 97.8213 35.6709C92.1861 47.2987 90.0688 61.5078 92.8838 78.7275C97.791 108.744 92.2157 127.303 84.9346 138.856C77.5638 150.552 67.7984 156.126 62.2783 159.025C57.6004 161.482 48.4704 165.63 37.9082 169.065C27.8326 172.343 17.0676 174.766 7.86035 174.788C4.41148 164.482 2.24897 153.787 1.4248 142.947C5.60799 142.275 9.65172 141.187 13.2549 140.001C20.4626 137.627 26.7482 134.588 30.2705 132.569C33.2296 130.873 45.557 125.248 55.8447 113.731C66.4751 101.831 74.9022 83.8562 71.8154 57.6924C69.1432 35.0416 72.6518 22.7809 76.9521 16.0371C77.8769 14.587 78.8766 13.3341 79.9238 12.2441C85.5866 9.76104 91.4307 7.67186 97.416 6.00098ZM56.0615 25.833C54.2847 34.924 53.973 46.0289 55.5752 59.6094C58.0785 80.828 51.3611 94.2044 43.6494 102.838C35.5965 111.853 26.3898 115.945 22.1387 118.382C19.5163 119.885 14.2377 122.461 8.13965 124.469C5.81443 125.234 3.47956 125.875 1.21094 126.354C1.25591 125.456 1.3097 124.559 1.37305 123.663C2.52032 107.437 6.66283 91.54 13.6143 76.7842C21.6812 59.6606 33.3413 44.4739 47.8018 32.2598C50.4724 30.004 53.2294 27.8624 56.0615 25.833Z" fill="#309FE9" stroke="#309FE9" stroke-width="2.29241"/>
</svg>
