<svg width="16" height="13" viewBox="0 0 16 13" fill="none" xmlns="http://www.w3.org/2000/svg">
<path fill-rule="evenodd" clip-rule="evenodd" d="M9.78812 0.357881C8.48425 0.325161 7.51558 0.325168 6.21172 0.357881L6.16182 0.359134C5.15558 0.384354 4.32766 0.405108 3.66034 0.521174C2.9521 0.644368 2.35909 0.884281 1.85682 1.38783C1.35718 1.88875 1.11795 2.47241 0.996758 3.16945C0.883018 3.82359 0.865804 4.63083 0.844971 5.60781L0.843898 5.65807C0.829698 6.32341 0.829704 6.67667 0.843911 7.34194L0.844984 7.39221C0.865811 8.36921 0.883024 9.17641 0.996764 9.83061C1.11796 10.5276 1.3572 11.1113 1.85683 11.6122C2.3591 12.1157 2.95211 12.3557 3.66036 12.4789C4.32766 12.5949 5.15558 12.6157 6.16182 12.6409L6.21173 12.6421C7.51558 12.6749 8.48425 12.6749 9.78812 12.6421L9.83799 12.6409C10.8443 12.6157 11.6722 12.5949 12.3395 12.4788C13.0477 12.3557 13.6407 12.1157 14.143 11.6122C14.6427 11.1113 14.8819 10.5276 15.0031 9.83054C15.1169 9.17641 15.1341 8.36921 15.1549 7.39221L15.1559 7.34194C15.1701 6.67661 15.1701 6.32341 15.1559 5.65807L15.1549 5.60787C15.1341 4.63085 15.1168 3.82359 15.0031 3.16945C14.8819 2.47241 14.6427 1.88875 14.143 1.38783C13.8608 1.10486 13.5499 0.905141 13.2059 0.762601C13.1536 0.734034 13.0975 0.712494 13.0391 0.698748C12.8192 0.621234 12.5863 0.564114 12.3395 0.521181C11.6722 0.405108 10.8443 0.384354 9.83799 0.359128L9.78812 0.357881ZM13.7865 4.40021C13.7735 4.12987 13.7671 3.9947 13.6692 3.94073C13.5713 3.88677 13.4509 3.95495 13.2103 4.09132L10.3865 5.69134C9.51998 6.18227 8.78725 6.50001 7.99978 6.50001C7.21232 6.50001 6.47956 6.18227 5.61315 5.69134L2.78955 4.09147C2.54887 3.95509 2.42853 3.88691 2.33064 3.94087C2.23274 3.99484 2.2263 4.13001 2.2134 4.40036C2.19602 4.7647 2.1866 5.18707 2.17594 5.68647C2.16214 6.33281 2.16214 6.66721 2.17595 7.31354C2.19816 8.35354 2.21499 9.05954 2.30946 9.60287C2.39842 10.1145 2.54684 10.4185 2.80073 10.673C3.05198 10.9249 3.3601 11.0759 3.88895 11.1679C4.44774 11.2651 5.17657 11.2851 6.24519 11.3119C7.52672 11.344 8.47312 11.344 9.75465 11.3119C10.8233 11.2851 11.5521 11.2651 12.1109 11.1679C12.6397 11.0759 12.9479 10.9249 13.1991 10.673C13.453 10.4185 13.6015 10.1145 13.6904 9.60287C13.7849 9.05954 13.8017 8.35354 13.8239 7.31354C13.8377 6.66721 13.8377 6.33281 13.8239 5.68647C13.8133 5.18701 13.8038 4.76459 13.7865 4.40021Z" fill="white"/>
</svg>
