<svg width="1406" height="266" viewBox="0 0 1406 266" fill="none" xmlns="http://www.w3.org/2000/svg">
<path d="M264.455 141.152C265.52 151.715 262.09 164.66 257.853 175.829C253.478 187.361 248.327 196.792 246.716 199.376L246.707 199.39L246.698 199.404C237.66 214.89 225.558 228.369 211.132 239.017C196.706 249.664 180.258 257.256 162.797 261.329C145.967 265.255 128.536 265.829 111.495 263.03C122.747 248.633 122.683 234.924 124.324 220.979C125.176 213.744 126.479 206.402 129.969 198.681C133.457 190.965 139.157 182.811 148.877 174.018C150.97 172.124 155.011 169.479 159.936 166.954C164.845 164.437 170.547 162.085 175.927 160.736C186.551 158.073 233.364 144.987 264.455 141.152ZM172.852 7.3623C184.47 11.062 195.551 16.3641 205.763 23.1436C214.248 28.7771 222.027 35.3595 228.959 42.7432C234.512 48.658 239.52 55.0884 243.912 61.958C236.804 63.0644 209.176 67.8832 180.604 79.8125C147.581 93.5997 112.82 117.09 107.65 155.769C102.609 193.49 86.8031 212.35 72.3994 221.816C59.5131 230.285 47.6218 231.316 45.2432 231.439C32.4185 220.03 21.9556 206.235 14.4307 190.838C24.1844 189.99 34.2085 187.466 42.9658 184.617C54.4369 180.886 64.4164 176.373 69.8809 173.503C76.2468 170.159 89.0897 162.933 98.7686 147.576C108.537 132.076 114.454 109.327 109.021 76.0908C106.665 61.6848 108.583 50.9639 112.537 42.8037C116.521 34.5837 122.899 28.2941 130.523 23.3457C144.684 14.1553 161.479 10.423 172.852 7.3623ZM97.415 6.00098C110.565 2.33008 124.174 0.734515 137.754 1.23926C132.308 3.52016 126.795 6.2707 121.621 9.62891C112.195 15.7468 103.426 24.1055 97.8203 35.6729C92.1855 47.3005 90.0678 61.5092 92.8828 78.7285C97.7898 108.745 92.2147 127.304 84.9336 138.857C77.5628 150.552 67.7973 156.127 62.2773 159.026C57.5992 161.483 48.4691 165.631 37.9072 169.066C27.8318 172.344 17.0667 174.766 7.85938 174.788C4.41055 164.482 2.24809 153.787 1.42383 142.947C5.60718 142.275 9.65087 141.186 13.2539 140C20.4614 137.627 26.7471 134.589 30.2695 132.57C33.2279 130.875 45.5555 125.249 55.8438 113.731C66.3081 102.016 74.6369 84.417 71.9502 58.9131L71.8145 57.6924C69.1422 35.0415 72.6509 22.7809 76.9512 16.0371C77.8759 14.5871 78.876 13.3348 79.9229 12.2451C85.5856 9.76188 91.4295 7.67192 97.415 6.00098ZM56.0615 25.833C54.2845 34.924 53.972 46.0288 55.5742 59.6094C58.0775 80.8278 51.3601 94.2034 43.6484 102.837C35.5954 111.852 26.3887 115.946 22.1377 118.383C19.5153 119.886 14.2364 122.46 8.13867 124.468C5.81324 125.234 3.47838 125.875 1.20996 126.354C1.25466 125.456 1.30873 124.559 1.37207 123.663C2.51933 107.438 6.662 91.5409 13.6133 76.7852C21.6801 59.6617 33.3404 44.4759 47.8008 32.2617C50.4718 30.0056 53.229 27.8628 56.0615 25.833Z" fill="#041A3B" stroke="white" stroke-width="2.29241"/>
<path d="M372.93 201.277C359.963 201.277 348.757 199.195 339.312 195.033C330.027 190.711 322.343 184.788 316.26 177.264C310.176 169.58 305.694 160.855 302.813 151.09C299.931 141.165 298.49 130.519 298.49 119.153C298.49 107.467 299.931 96.5811 302.813 86.4958C305.854 76.4104 310.337 67.6058 316.26 60.0818C322.343 52.5578 330.027 46.7147 339.312 42.5525C348.597 38.2302 359.563 36.069 372.209 36.069C383.255 36.069 392.78 37.6699 400.784 40.8716C408.789 43.9132 415.272 48.2355 420.235 53.8385C425.357 59.2813 428.959 65.6847 431.04 73.0486C432.718 78.8559 433.512 84.9233 433.421 91.2508C433.382 93.9403 431.291 96.1049 428.623 96.4459L407.813 99.1059C404.365 99.5466 401.372 96.8085 401.038 93.3487C400.596 88.7752 399.552 84.73 397.903 81.213C395.662 75.9302 392.3 71.928 387.818 69.2066C383.335 66.3251 377.812 64.8843 371.249 64.8843C365.646 64.8843 360.603 66.0049 356.121 68.2461C351.638 70.4873 347.796 73.8491 344.595 78.3314C341.393 82.6537 338.912 88.0966 337.151 94.6601C335.55 101.224 334.749 108.908 334.749 117.712C334.749 129.078 336.19 138.843 339.072 147.008C341.953 155.172 346.276 161.495 352.039 165.978C357.962 170.3 365.166 172.461 373.65 172.461C381.494 172.461 387.738 170.7 392.38 167.179C397.183 163.657 400.624 158.774 402.705 152.531C404.205 147.916 405.04 142.843 405.209 137.313C405.316 133.827 408.241 130.979 411.713 131.311L433.062 133.351C435.788 133.612 437.964 135.779 438.046 138.515C438.262 145.78 437.448 152.773 435.603 159.494C433.522 167.499 429.84 174.702 424.557 181.106C419.434 187.349 412.551 192.312 403.906 195.994C395.422 199.516 385.096 201.277 372.93 201.277Z" fill="#041A3B"/>
<path d="M484.326 234.894C479.203 234.894 473.761 234.414 467.998 233.454C462.234 232.653 456.551 231.212 450.949 229.131C446.732 227.565 442.788 225.727 439.115 223.617C436.972 222.386 436.027 219.831 436.686 217.449L442.3 197.152C443.472 192.918 448.877 191.512 452.51 193.983C455.924 196.305 459.566 198.096 463.435 199.356C470.479 201.757 476.962 202.957 482.885 202.957C491.37 202.957 498.334 201.197 503.776 197.675C509.379 194.153 513.462 189.19 516.023 182.787C518.744 176.383 520.105 168.699 520.105 159.735L520.565 136.959C520.576 136.411 520.136 135.962 519.589 135.962C519.07 135.962 518.642 136.368 518.61 136.885C517.911 147.993 515.848 157.131 512.421 164.297C509.059 171.501 504.497 176.864 498.734 180.385C492.971 183.747 486.407 185.428 479.043 185.428C469.758 185.428 462.074 183.107 455.991 178.464C450.068 173.662 445.586 166.698 442.544 157.573C439.663 148.288 438.222 136.922 438.222 123.475V77.5335C438.222 74.3935 440.767 71.848 443.907 71.848H466.874C470.014 71.848 472.56 74.3935 472.56 77.5335V114.831C472.56 128.758 474.161 139.004 477.362 145.567C480.564 151.97 485.607 155.172 492.491 155.172C496.172 155.172 499.454 154.292 502.336 152.531C505.377 150.61 507.859 147.728 509.78 143.886C511.701 140.044 513.141 135.322 514.102 129.719C515.223 123.956 515.783 117.312 515.783 109.788V77.5335C515.783 74.3935 518.328 71.848 521.468 71.848H544.436C547.576 71.848 550.121 74.3935 550.121 77.5335V160.935C550.121 168.779 549.321 176.383 547.72 183.747C546.279 190.951 543.958 197.595 540.756 203.678C537.554 209.921 533.392 215.364 528.269 220.006C523.147 224.809 516.903 228.491 509.54 231.052C502.336 233.614 493.931 234.894 484.326 234.894Z" fill="#041A3B"/>
<path d="M628.691 201.277C621.328 201.277 614.844 199.676 609.241 196.474C603.798 193.112 599.236 188.23 595.554 181.826C591.969 175.592 589.295 167.916 587.531 158.799C587.448 158.367 587.071 158.054 586.632 158.054C586.124 158.054 585.714 158.469 585.72 158.977L586.12 192.161C586.158 195.327 583.601 197.915 580.434 197.915H561.407C558.256 197.915 555.706 195.352 555.721 192.201L555.933 150.129L555.704 36.7234C555.698 33.5789 558.245 31.0264 561.39 31.0264H584.826C587.966 31.0264 590.511 33.5719 590.511 36.7119V67.0455C590.511 71.3677 590.271 76.0902 589.791 81.213C589.471 86.3357 588.91 91.6985 588.11 97.3015C587.514 102.368 586.779 107.642 585.906 113.125C585.803 113.768 586.299 114.351 586.95 114.351C587.477 114.351 587.923 113.961 587.999 113.439C589.462 103.444 591.98 95.1832 595.554 88.6569C599.236 81.7733 603.958 76.7306 609.721 73.5289C615.645 70.1671 622.448 68.4862 630.132 68.4862C639.577 68.4862 647.822 70.8875 654.865 75.69C661.909 80.4926 667.352 87.6964 671.194 97.3015C675.036 106.907 676.957 118.993 676.957 133.561C676.957 149.089 674.796 161.816 670.474 171.741C666.311 181.666 660.548 189.11 653.184 194.073C645.82 198.875 637.656 201.277 628.691 201.277ZM617.165 173.182C622.448 173.182 626.93 171.581 630.612 168.379C634.294 165.017 637.096 160.535 639.017 154.932C640.938 149.329 641.898 143.086 641.898 136.202C641.898 128.998 640.938 122.515 639.017 116.752C637.256 110.989 634.534 106.426 630.853 103.065C627.171 99.5427 622.528 97.7817 616.925 97.7817C614.044 97.7817 611.162 98.342 608.281 99.4626C605.559 100.583 603.078 102.264 600.837 104.505C598.756 106.586 596.915 109.148 595.314 112.189C593.713 115.231 592.432 118.673 591.472 122.515C590.671 126.197 590.271 130.199 590.271 134.521V136.202C590.271 141.645 590.911 146.688 592.192 151.33C593.633 155.812 595.554 159.735 597.955 163.096C600.356 166.298 603.158 168.779 606.36 170.54C609.721 172.301 613.323 173.182 617.165 173.182Z" fill="#041A3B"/>
<path d="M739.476 201.277C728.11 201.277 718.425 199.596 710.421 196.234C702.577 192.872 696.173 188.23 691.211 182.307C686.248 176.383 682.646 169.58 680.405 161.896C678.164 154.212 677.043 145.967 677.043 137.163C677.043 128.038 678.164 119.393 680.405 111.229C682.806 102.904 686.408 95.5406 691.211 89.1372C696.013 82.7338 702.257 77.6911 709.941 74.0091C717.625 70.3272 726.67 68.4862 737.075 68.4862C747.481 68.4862 756.445 70.3272 763.969 74.0091C771.493 77.531 777.497 82.4936 781.979 88.897C786.621 95.3004 789.663 102.824 791.104 111.469C792.449 118.601 792.72 126.356 791.917 134.733C791.649 137.521 789.28 139.596 786.479 139.639L704.188 140.915C701.014 140.964 698.415 138.405 698.415 135.23V127.118C698.415 124.026 700.886 121.501 703.977 121.434L762.642 120.163C763.715 120.14 764.454 121.232 764.034 122.219C763.368 123.783 760.578 123.136 760.502 121.438C760.355 118.158 759.91 115.155 759.167 112.429C757.726 107.147 755.165 103.145 751.483 100.423C747.961 97.5416 743.158 96.1008 737.075 96.1008C730.672 96.1008 725.469 97.7817 721.467 101.144C717.625 104.345 714.823 108.908 713.062 114.831C711.301 120.754 710.421 127.638 710.421 135.482C710.421 149.089 712.822 159.094 717.625 165.498C722.587 171.901 729.951 175.103 739.717 175.103C744.199 175.103 747.881 174.542 750.762 173.422C753.804 172.141 756.205 170.46 757.966 168.379C759.887 166.138 761.168 163.577 761.808 160.695C762.082 159.708 762.3 158.692 762.462 157.648C762.979 154.305 765.716 151.509 769.093 151.713L789.421 152.945C792.298 153.12 794.628 155.424 794.473 158.302C794.261 162.262 793.538 166.261 792.304 170.3C790.704 175.903 787.742 181.026 783.42 185.668C779.257 190.311 773.494 194.073 766.13 196.954C758.927 199.836 750.042 201.277 739.476 201.277Z" fill="#041A3B"/>
<path d="M802.59 197.915C799.45 197.915 796.904 195.369 796.904 192.229V131.64L796.687 77.5564C796.674 74.4074 799.224 71.848 802.373 71.848H821.156C824.326 71.848 826.884 74.4414 826.841 77.6117L826.214 123.195C826.206 123.745 826.65 124.196 827.201 124.196C827.719 124.196 828.149 123.793 828.187 123.277C829.169 110.101 831.068 99.6017 833.884 91.7786C836.765 83.6142 840.367 77.7711 844.69 74.2493C849.172 70.7274 854.215 68.9665 859.818 68.9665C862.539 68.9665 865.341 69.3667 868.222 70.1671C870.169 70.5769 872.115 71.1834 874.062 71.9865C876.108 72.831 877.276 74.9437 877.164 77.1549L875.882 102.634C875.671 106.828 871.098 109.367 867.064 108.202C866.649 108.082 866.235 107.971 865.821 107.867C862.619 106.907 859.657 106.426 856.936 106.426C851.493 106.426 846.851 108.107 843.009 111.469C839.167 114.831 836.205 119.793 834.124 126.357C832.203 132.76 831.242 140.604 831.242 149.889V192.229C831.242 195.369 828.697 197.915 825.557 197.915H802.59Z" fill="#041A3B"/>
<path d="M915.029 197.915C912.549 197.915 910.355 196.308 909.608 193.943L873.342 79.2476C872.183 75.5827 874.919 71.848 878.763 71.848H903.342C905.933 71.848 908.196 73.5991 908.846 76.1067L932.834 168.633C932.905 168.908 933.153 169.1 933.437 169.1C933.719 169.1 933.966 168.91 934.039 168.637L958.724 76.0686C959.388 73.5797 961.642 71.848 964.217 71.848H986.907C990.751 71.848 993.487 75.5827 992.328 79.2476L956.062 193.943C955.315 196.308 953.121 197.915 950.641 197.915H915.029Z" fill="#041A3B"/>
<path d="M1044.89 201.277C1033.52 201.277 1023.84 199.596 1015.83 196.234C1007.99 192.872 1001.59 188.23 996.623 182.307C991.66 176.383 988.058 169.58 985.817 161.896C983.576 154.212 982.455 145.967 982.455 137.163C982.455 128.038 983.576 119.393 985.817 111.229C988.218 102.904 991.82 95.5406 996.623 89.1372C1001.43 82.7338 1007.67 77.6911 1015.35 74.0091C1023.04 70.3272 1032.08 68.4862 1042.49 68.4862C1052.89 68.4862 1061.86 70.3272 1069.38 74.0091C1076.91 77.531 1082.91 82.4936 1087.39 88.897C1092.03 95.3004 1095.07 102.824 1096.52 111.469C1097.86 118.601 1098.13 126.356 1097.33 134.733C1097.06 137.521 1094.69 139.596 1091.89 139.639L1009.6 140.915C1006.43 140.964 1003.83 138.405 1003.83 135.23V127.118C1003.83 124.026 1006.3 121.501 1009.39 121.434L1068.05 120.163C1069.13 120.14 1069.87 121.232 1069.45 122.219C1068.78 123.783 1065.99 123.136 1065.91 121.438C1065.77 118.158 1065.32 115.155 1064.58 112.429C1063.14 107.147 1060.58 103.145 1056.89 100.423C1053.37 97.5416 1048.57 96.1008 1042.49 96.1008C1036.08 96.1008 1030.88 97.7817 1026.88 101.144C1023.04 104.345 1020.24 108.908 1018.47 114.831C1016.71 120.754 1015.83 127.638 1015.83 135.482C1015.83 149.089 1018.23 159.094 1023.04 165.498C1028 171.901 1035.36 175.103 1045.13 175.103C1049.61 175.103 1053.29 174.542 1056.17 173.422C1059.22 172.141 1061.62 170.46 1063.38 168.379C1065.3 166.138 1066.58 163.577 1067.22 160.695C1067.49 159.708 1067.71 158.692 1067.87 157.648C1068.39 154.305 1071.13 151.509 1074.5 151.713L1094.83 152.945C1097.71 153.12 1100.04 155.424 1099.89 158.302C1099.67 162.262 1098.95 166.261 1097.72 170.3C1096.12 175.903 1093.15 181.026 1088.83 185.668C1084.67 190.311 1078.91 194.073 1071.54 196.954C1064.34 199.836 1055.45 201.277 1044.89 201.277Z" fill="#041A3B"/>
<path d="M1108 197.915C1104.86 197.915 1102.32 195.369 1102.32 192.229V131.64L1102.1 77.5564C1102.09 74.4074 1104.64 71.848 1107.78 71.848H1126.57C1129.74 71.848 1132.3 74.4414 1132.25 77.6118L1131.63 123.195C1131.62 123.745 1132.06 124.196 1132.61 124.196C1133.13 124.196 1133.56 123.793 1133.6 123.276C1134.58 110.101 1136.48 99.6017 1139.3 91.7786C1142.18 83.6142 1145.78 77.7711 1150.1 74.2493C1154.58 70.7274 1159.63 68.9665 1165.23 68.9665C1167.95 68.9665 1170.75 69.3667 1173.63 70.1671C1175.58 70.5769 1177.53 71.1834 1179.47 71.9865C1181.52 72.831 1182.69 74.9437 1182.58 77.1549L1181.29 102.634C1181.08 106.828 1176.51 109.367 1172.48 108.202C1172.06 108.082 1171.65 107.971 1171.23 107.867C1168.03 106.907 1165.07 106.426 1162.35 106.426C1156.9 106.426 1152.26 108.107 1148.42 111.469C1144.58 114.831 1141.62 119.793 1139.54 126.357C1137.61 132.76 1136.65 140.604 1136.65 149.889V192.229C1136.65 195.369 1134.11 197.915 1130.97 197.915H1108Z" fill="#041A3B"/>
<path d="M1234.61 201.277C1226.29 201.277 1218.53 200.396 1211.32 198.635C1204.28 197.034 1198.12 194.393 1192.83 190.711C1187.71 187.029 1183.79 182.146 1181.07 176.063C1178.87 171.029 1177.72 165.214 1177.61 158.618C1177.56 155.808 1179.77 153.534 1182.57 153.268L1201.9 151.427C1205.18 151.115 1207.97 153.661 1208.55 156.902C1209.13 160.188 1210.14 163.053 1211.56 165.498C1213.8 169.18 1216.93 171.901 1220.93 173.662C1225.09 175.263 1230.05 176.063 1235.82 176.063C1241.9 176.063 1246.94 175.103 1250.94 173.182C1254.95 171.101 1256.95 167.819 1256.95 163.336C1256.95 160.615 1256.07 158.454 1254.31 156.853C1252.7 155.252 1249.98 153.811 1246.14 152.531C1242.3 151.25 1237.1 149.809 1230.53 148.208C1222.85 146.448 1215.8 144.607 1209.4 142.686C1203 140.604 1197.48 138.203 1192.83 135.482C1188.19 132.6 1184.59 129.078 1182.03 124.916C1179.63 120.594 1178.43 115.311 1178.43 109.068C1178.43 100.583 1180.67 93.3794 1185.15 87.4563C1189.79 81.373 1196.11 76.7306 1204.12 73.5289C1212.28 70.1671 1221.65 68.4862 1232.21 68.4862C1241.82 68.4862 1250.7 70.007 1258.87 73.0486C1267.19 76.0902 1273.76 81.0529 1278.56 87.9365C1282.68 93.7011 1284.62 101.113 1284.38 110.173C1284.31 112.885 1282.14 115.019 1279.44 115.28L1261.16 117.049C1257.6 117.393 1254.71 114.376 1254.16 110.848C1253.81 108.6 1253.14 106.566 1252.14 104.745C1250.22 101.224 1247.34 98.5822 1243.5 96.8212C1239.82 94.9002 1235.42 93.9397 1230.29 93.9397C1224.21 93.9397 1219.41 95.1403 1215.88 97.5416C1212.52 99.7828 1210.84 102.744 1210.84 106.426C1210.84 109.468 1211.88 111.949 1213.96 113.87C1216.21 115.791 1219.41 117.392 1223.57 118.673C1227.73 119.793 1233.01 121.074 1239.42 122.515C1244.86 123.635 1250.46 125.076 1256.23 126.837C1262.15 128.438 1267.59 130.679 1272.55 133.561C1277.68 136.282 1281.76 140.044 1284.8 144.847C1288 149.489 1289.6 155.492 1289.6 162.856C1289.6 170.54 1287.44 177.344 1283.12 183.267C1278.96 189.03 1272.8 193.512 1264.63 196.714C1256.47 199.756 1246.46 201.277 1234.61 201.277Z" fill="#041A3B"/>
<path d="M1350.3 201.277C1338.93 201.277 1329.25 199.596 1321.24 196.234C1313.4 192.872 1307 188.23 1302.03 182.307C1297.07 176.383 1293.47 169.58 1291.23 161.896C1288.99 154.212 1287.87 145.967 1287.87 137.163C1287.87 128.038 1288.99 119.393 1291.23 111.229C1293.63 102.904 1297.23 95.5406 1302.03 89.1372C1306.84 82.7338 1313.08 77.6911 1320.76 74.0091C1328.45 70.3272 1337.49 68.4862 1347.9 68.4862C1358.3 68.4862 1367.27 70.3272 1374.79 74.0091C1382.32 77.531 1388.32 82.4936 1392.8 88.897C1397.44 95.3004 1400.49 102.824 1401.93 111.469C1403.27 118.601 1403.54 126.356 1402.74 134.733C1402.47 137.521 1400.1 139.596 1397.3 139.639L1315.01 140.915C1311.84 140.964 1309.24 138.405 1309.24 135.23V127.118C1309.24 124.026 1311.71 121.501 1314.8 121.434L1373.47 120.163C1374.54 120.14 1375.28 121.232 1374.86 122.219C1374.19 123.783 1371.4 123.136 1371.33 121.438C1371.18 118.158 1370.73 115.155 1369.99 112.429C1368.55 107.147 1365.99 103.145 1362.31 100.423C1358.78 97.5416 1353.98 96.1008 1347.9 96.1008C1341.5 96.1008 1336.29 97.7817 1332.29 101.144C1328.45 104.345 1325.65 108.908 1323.89 114.831C1322.12 120.754 1321.24 127.638 1321.24 135.482C1321.24 149.089 1323.65 159.094 1328.45 165.498C1333.41 171.901 1340.77 175.103 1350.54 175.103C1355.02 175.103 1358.7 174.542 1361.59 173.422C1364.63 172.141 1367.03 170.46 1368.79 168.379C1370.71 166.138 1371.99 163.577 1372.63 160.695C1372.91 159.708 1373.12 158.692 1373.29 157.648C1373.8 154.305 1376.54 151.509 1379.92 151.713L1400.24 152.945C1403.12 153.12 1405.45 155.424 1405.3 158.302C1405.08 162.262 1404.36 166.261 1403.13 170.3C1401.53 175.903 1398.57 181.026 1394.24 185.668C1390.08 190.311 1384.32 194.073 1376.95 196.954C1369.75 199.836 1360.87 201.277 1350.3 201.277Z" fill="#041A3B"/>
</svg>
