<svg width="36" height="37" viewBox="0 0 36 37" fill="none" xmlns="http://www.w3.org/2000/svg">
<path d="M22.0561 29.9518L18.0663 25.4155C16.0911 23.1697 15.8571 22.1828 15.9872 21.9701L17.4846 20.7641L23.5541 16.0166C24.0435 15.6338 24.1299 14.9268 23.7471 14.4374C23.3643 13.948 22.6572 13.8616 22.1677 14.2444L16.092 18.9967L14.2648 20.4879C13.8383 20.9458 13.5663 21.7286 13.863 22.8419C14.1398 23.8808 14.9164 25.2539 16.5699 27.139L15.9592 28.3433C15.5647 28.8916 15.1986 29.4007 14.8616 29.7495C14.5267 30.0962 13.9182 30.6057 13.0706 30.4371C12.2342 30.2708 11.8589 29.5793 11.673 29.1356C11.4843 28.6849 11.3245 28.0736 11.151 27.4106L10.3988 24.5358C9.98094 22.9391 9.83665 22.4801 9.56476 22.1423C9.53044 22.0997 9.4947 22.0584 9.45763 22.0188C9.17058 21.7115 8.76517 21.5224 7.28025 20.9272L7.1989 20.8945C5.73552 20.308 4.53009 19.8248 3.68697 19.35C2.87016 18.8902 1.9881 18.2216 1.88662 17.0934C1.87086 16.9181 1.87113 16.7417 1.88743 16.5664C1.99237 15.4385 2.87662 14.7727 3.69487 14.3156C4.53948 13.8436 5.74641 13.3645 7.2116 12.7828L25.1877 5.64578C27.0266 4.91568 28.53 4.31868 29.7114 4.04651C30.9159 3.76902 32.1601 3.73964 33.1351 4.64151C34.091 5.52558 34.2054 6.77102 34.0863 8.0262C33.9681 9.27155 33.5796 10.8911 33.1003 12.889L29.4708 28.0195C29.1654 29.2929 28.9076 30.3682 28.5983 31.1482C28.2859 31.9363 27.785 32.7824 26.7726 33.0501C25.7481 33.3211 24.9014 32.816 24.2579 32.2714C23.6257 31.7365 22.9049 30.9169 22.0561 29.9518Z" fill="#309FE9"/>
</svg>
