<svg width="32" height="31" viewBox="0 0 32 31" fill="none" xmlns="http://www.w3.org/2000/svg">
<path fill-rule="evenodd" clip-rule="evenodd" d="M4.75 0.125C2.47183 0.125 0.625 1.97183 0.625 4.25V26.75C0.625 29.0282 2.47183 30.875 4.75 30.875H27.25C29.5282 30.875 31.375 29.0282 31.375 26.75V4.25C31.375 1.97183 29.5282 0.125 27.25 0.125H4.75ZM8.5 6.875C8.07754 6.875 7.69067 7.11168 7.49834 7.48784C7.30601 7.86399 7.34063 8.31618 7.58798 8.65868L13.3174 16.5917L7.7045 22.2045C7.26517 22.6439 7.26517 23.3561 7.7045 23.7954C8.14385 24.2348 8.85616 24.2348 9.2955 23.7954L14.6518 18.4392L18.4213 23.6586C18.6328 23.9516 18.9721 24.125 19.3333 24.125H23.5C23.9224 24.125 24.3094 23.8883 24.5017 23.5121C24.694 23.136 24.6593 22.6838 24.412 22.3413L18.6826 14.4083L24.2954 8.7955C24.7348 8.35616 24.7348 7.64384 24.2954 7.2045C23.8561 6.76517 23.1439 6.76517 22.7045 7.2045L17.3482 12.5607L13.5787 7.34132C13.3672 7.04847 13.0279 6.875 12.6667 6.875H8.5Z" fill="#309FE9"/>
</svg>
